<svg xmlns="http://www.w3.org/2000/svg" viewBox="0 0 22.62 22.62"><defs><style>.cls-1{fill:#fff}</style></defs><g id="Layer_2" data-name="Layer 2"><g id="Inicio_2" data-name="Inicio 2"><path class="cls-1" d="M15.51 22.62a6.41 6.41 0 01-.89-.21 26 26 0 01-6.18-3.34A23.69 23.69 0 013 13.49 22.45 22.45 0 01.16 7.92a2.37 2.37 0 01.63-2.63c.8-.81 1.59-1.64 2.39-2.45a1.81 1.81 0 012.51 0c1 1 2.05 2.1 3.09 3.14a1.77 1.77 0 01.55.9 1.72 1.72 0 01-.49 1.61L7.39 9.93a.16.16 0 000 .23 9.82 9.82 0 004 4.47c.4.25.83.46 1.23.69.1.06.15 0 .22 0l1.39-1.39a1.75 1.75 0 012.54 0L19.82 17a1.75 1.75 0 010 2.45l-2.36 2.36a2.81 2.81 0 01-1.94.76zm-.13-7.81a.85.85 0 01-.14.19l-2.16 2.17a.17.17 0 01-.21 0c-.3-.14-.6-.27-.9-.42a14.42 14.42 0 01-3.66-2.53 12 12 0 01-2.8-4.39.28.28 0 01.08-.35c.7-.69 1.4-1.39 2.09-2.09.17-.16.17-.18 0-.33L6.14 5.51 4.65 4a.25.25 0 00-.42 0 .76.76 0 00-.09.09c-.75.77-1.49 1.54-2.24 2.3a1 1 0 00-.25 1.1 21.1 21.1 0 001.71 3.63 22.13 22.13 0 005.4 6.24 24.45 24.45 0 006.31 3.57 1.18 1.18 0 001.37-.28l2.22-2.22a1.15 1.15 0 01.19-.14z"/><path class="cls-1" d="M22.62 9.33H16.8a.62.62 0 00-.3.09l-3.08 2.05-.13.08V9.47c0-.12 0-.15-.16-.15h-1.39V0h10.88zm-9.33-1.56h1.56v.87L16 7.86a.58.58 0 01.29-.09h4.74V1.56h-7.74z"/></g></g></svg>