<svg xmlns="http://www.w3.org/2000/svg" viewBox="0 0 20.49 16.62"><defs><style>.cls-1{fill:#fff}</style></defs><g id="Layer_2" data-name="Layer 2"><g id="Inicio_2" data-name="Inicio 2"><path class="cls-1" d="M2.32 11.67V7.83A1.13 1.13 0 013 6.73c2.08-1.21 4.2-2.45 6.32-3.67a6.45 6.45 0 01.58-.31.73.73 0 01.69 0c.55.3 1.09.61 1.63.93l5.39 3.1a1 1 0 01.55 1v7.82a.91.91 0 01-1 1h-3.28a.93.93 0 01-1-1v-2.34a2.71 2.71 0 00-.72-1.91 2.64 2.64 0 00-3.81 0 2.8 2.8 0 00-.73 1.95v2.33a.9.9 0 01-1 1H3.3a.91.91 0 01-1-1zm14.08 3.17v-6.6c0-.13-.07-.17-.16-.22l-5.87-3.39a.28.28 0 00-.25 0L4.23 8a.28.28 0 00-.16.27v6.55h1.8v-1.55a4.28 4.28 0 01.33-1.81 4.34 4.34 0 014.9-2.61 4.23 4.23 0 013.22 2.72 4.35 4.35 0 01.3 1.71v1.54z"/><path class="cls-1" d="M.86 7.17A1 1 0 010 6.52a.86.86 0 01.41-1l2.53-1.47C5.17 2.76 7.4 1.49 9.62.19a1.12 1.12 0 011.24 0l8.92 5.15a3.06 3.06 0 01.47.33.86.86 0 01.11 1 .84.84 0 01-1 .35c-.42-.2-.83-.44-1.24-.68-2.49-1.43-5-2.86-7.46-4.31a.65.65 0 00-.79 0C7 3.73 4.19 5.35 1.37 7c-.16.06-.37.1-.51.17z"/></g></g></svg>