<svg xmlns="http://www.w3.org/2000/svg" viewBox="0 0 20.67 16.53"><g data-name="Layer 2"><path d="M10.29 16.53H1c-.83 0-1-.21-1-1.05V1c0-.8.2-1 1-1h18.69c.78 0 1 .2 1 1v14.5c0 .85-.2 1.05-1 1.05zm9-4.05V2.22l-.29.21c-2.33 2-4.66 4-7 6a2.18 2.18 0 01-3.3 0l-7-6c-.1-.09-.22-.16-.36-.27v10.32l5.11-3.4.75 1.13-5.2 3.5c-.74.49-.75.5-.58 1.42h17.82a1.16 1.16 0 00-.66-1.49c-1.06-.63-2.07-1.36-3.1-2.05l-2.07-1.38.75-1.13zM2.57 1.37l.43.36L9.56 7.4c.69.59.86.59 1.54 0 2.23-1.91 4.45-3.83 6.68-5.73a1.39 1.39 0 01.35-.16L18 1.37z" fill="#fff" data-name="Inicio 2"/></g></svg>