<svg width="1739" height="620" fill="none" xmlns="http://www.w3.org/2000/svg"><g clip-path="url(#clip0)" stroke="#B0B2B3" stroke-width=".75" stroke-miterlimit="10"><g style="mix-blend-mode:overlay"><path d="M1488.95 502.83a9.645 9.645 0 01-1.3 4.31 9.556 9.556 0 01-3.11 3.25l-37.85 21.72a9.82 9.82 0 01-8.8 0l-37.86-21.71a9.59 9.59 0 01-3.1-3.259 9.653 9.653 0 01-1.3-4.311V459.4a9.652 9.652 0 011.3-4.31 9.603 9.603 0 013.1-3.26l37.86-21.71a9.82 9.82 0 018.8 0l37.85 21.71a9.694 9.694 0 014.41 7.57v43.43z"/><path d="M1488.95 502.83a9.645 9.645 0 01-1.3 4.31 9.556 9.556 0 01-3.11 3.25l-37.85 21.72a9.82 9.82 0 01-8.8 0l-37.86-21.71a9.59 9.59 0 01-3.1-3.259 9.653 9.653 0 01-1.3-4.311V459.4a9.652 9.652 0 011.3-4.31 9.603 9.603 0 013.1-3.26l37.86-21.71a9.82 9.82 0 018.8 0l37.85 21.71a9.694 9.694 0 014.41 7.57v43.43zm48.37-86.078a9.645 9.645 0 01-1.3 4.31 9.556 9.556 0 01-3.11 3.25l-37.85 21.72a9.82 9.82 0 01-8.8 0l-37.86-21.71a9.59 9.59 0 01-3.1-3.259 9.653 9.653 0 01-1.3-4.311v-43.43a9.652 9.652 0 011.3-4.31 9.612 9.612 0 013.1-3.26l37.86-21.71a9.82 9.82 0 018.8 0l37.85 21.71a9.694 9.694 0 014.41 7.57v43.43zm101 0a9.645 9.645 0 01-1.3 4.31 9.556 9.556 0 01-3.11 3.25l-37.85 21.72a9.82 9.82 0 01-8.8 0l-37.86-21.71a9.59 9.59 0 01-3.1-3.259 9.653 9.653 0 01-1.3-4.311v-43.43a9.652 9.652 0 011.3-4.31 9.612 9.612 0 013.1-3.26l37.86-21.71a9.82 9.82 0 018.8 0l37.85 21.71a9.694 9.694 0 014.41 7.57v43.43zm50 86a9.645 9.645 0 01-1.3 4.31 9.556 9.556 0 01-3.11 3.25l-37.85 21.72a9.82 9.82 0 01-8.8 0l-37.86-21.71a9.59 9.59 0 01-3.1-3.259 9.653 9.653 0 01-1.3-4.311v-43.43a9.652 9.652 0 011.3-4.31 9.612 9.612 0 013.1-3.26l37.86-21.71a9.82 9.82 0 018.8 0l37.85 21.71a9.694 9.694 0 014.41 7.57v43.43zm-100 0a9.645 9.645 0 01-1.3 4.31 9.556 9.556 0 01-3.11 3.25l-37.85 21.72a9.82 9.82 0 01-8.8 0l-37.86-21.71a9.59 9.59 0 01-3.1-3.259 9.653 9.653 0 01-1.3-4.311v-43.43a9.652 9.652 0 011.3-4.31 9.612 9.612 0 013.1-3.26l37.86-21.71a9.82 9.82 0 018.8 0l37.85 21.71a9.694 9.694 0 014.41 7.57v43.43z"/></g><g style="mix-blend-mode:overlay"><path d="M1534.37 537.56a9.627 9.627 0 013.1 3.265 9.673 9.673 0 011.3 4.315v43.43a9.649 9.649 0 01-1.3 4.31 9.603 9.603 0 01-3.1 3.26l-37.86 21.71a9.82 9.82 0 01-8.8 0l-37.86-21.71a9.603 9.603 0 01-3.1-3.26 9.649 9.649 0 01-1.3-4.31v-43.43a9.652 9.652 0 011.3-4.31 9.612 9.612 0 013.1-3.26l37.86-21.72a9.843 9.843 0 018.8 0l37.86 21.71z"/><path d="M1534.37 537.56a9.627 9.627 0 013.1 3.265 9.673 9.673 0 011.3 4.315v43.43a9.649 9.649 0 01-1.3 4.31 9.603 9.603 0 01-3.1 3.26l-37.86 21.71a9.82 9.82 0 01-8.8 0l-37.86-21.71a9.603 9.603 0 01-3.1-3.26 9.649 9.649 0 01-1.3-4.31v-43.43a9.652 9.652 0 011.3-4.31 9.612 9.612 0 013.1-3.26l37.86-21.72a9.843 9.843 0 018.8 0l37.86 21.71z"/></g><g style="mix-blend-mode:overlay"><path d="M1587.36 515.85a9.843 9.843 0 018.8 0l37.87 21.72a9.59 9.59 0 013.1 3.259 9.653 9.653 0 011.3 4.311v43.43a9.73 9.73 0 01-4.4 7.57l-37.86 21.71a9.82 9.82 0 01-8.8 0l-37.86-21.71a9.603 9.603 0 01-3.1-3.26 9.649 9.649 0 01-1.3-4.31v-43.43c.09-1.52.53-2.998 1.3-4.315a9.627 9.627 0 013.1-3.265l37.85-21.71z"/><path d="M1587.36 515.85a9.843 9.843 0 018.8 0l37.87 21.72a9.59 9.59 0 013.1 3.259 9.653 9.653 0 011.3 4.311v43.43a9.73 9.73 0 01-4.4 7.57l-37.86 21.71a9.82 9.82 0 01-8.8 0l-37.86-21.71a9.603 9.603 0 01-3.1-3.26 9.649 9.649 0 01-1.3-4.31v-43.43c.09-1.52.53-2.998 1.3-4.315a9.627 9.627 0 013.1-3.265l37.85-21.71z"/></g><g style="mix-blend-mode:overlay"><path d="M1289.62 502.82a9.653 9.653 0 01-1.3 4.311 9.59 9.59 0 01-3.1 3.259l-37.86 21.72a9.862 9.862 0 01-4.41 1.042c-1.52 0-3.03-.357-4.4-1.042l-37.85-21.72a9.59 9.59 0 01-3.1-3.259 9.653 9.653 0 01-1.3-4.311V459.4a9.773 9.773 0 011.29-4.312 9.694 9.694 0 013.11-3.258l37.85-21.72a9.898 9.898 0 018.81 0l37.86 21.72a9.694 9.694 0 013.11 3.258 9.773 9.773 0 011.29 4.312v43.42z"/><path d="M1289.62 502.82a9.653 9.653 0 01-1.3 4.311 9.59 9.59 0 01-3.1 3.259l-37.86 21.72a9.862 9.862 0 01-4.41 1.042c-1.52 0-3.03-.357-4.4-1.042l-37.85-21.72a9.59 9.59 0 01-3.1-3.259 9.653 9.653 0 01-1.3-4.311V459.4a9.773 9.773 0 011.29-4.312 9.694 9.694 0 013.11-3.258l37.85-21.72a9.898 9.898 0 018.81 0l37.86 21.72a9.694 9.694 0 013.11 3.258 9.773 9.773 0 011.29 4.312v43.42z"/></g><g style="mix-blend-mode:overlay"><path d="M1189.95 502.83a9.752 9.752 0 01-1.29 4.307 9.688 9.688 0 01-3.11 3.253l-37.86 21.72a9.82 9.82 0 01-8.8 0l-37.86-21.71a9.59 9.59 0 01-3.1-3.259 9.653 9.653 0 01-1.3-4.311V459.4a9.652 9.652 0 011.3-4.31 9.603 9.603 0 013.1-3.26l37.92-21.71a9.82 9.82 0 018.8 0l37.86 21.71a9.603 9.603 0 013.1 3.26 9.652 9.652 0 011.3 4.31l-.06 43.43z"/><path d="M1189.95 502.83a9.752 9.752 0 01-1.29 4.307 9.688 9.688 0 01-3.11 3.253l-37.86 21.72a9.82 9.82 0 01-8.8 0l-37.86-21.71a9.59 9.59 0 01-3.1-3.259 9.653 9.653 0 01-1.3-4.311V459.4a9.652 9.652 0 011.3-4.31 9.603 9.603 0 013.1-3.26l37.92-21.71a9.82 9.82 0 018.8 0l37.86 21.71a9.603 9.603 0 013.1 3.26 9.652 9.652 0 011.3 4.31l-.06 43.43z"/></g><g style="mix-blend-mode:overlay"><path d="M1235.39 537.56a9.627 9.627 0 013.1 3.265 9.673 9.673 0 011.3 4.315v43.43a9.649 9.649 0 01-1.3 4.31 9.603 9.603 0 01-3.1 3.26l-37.86 21.71a9.82 9.82 0 01-8.8 0l-37.86-21.71a9.603 9.603 0 01-3.1-3.26 9.649 9.649 0 01-1.3-4.31v-43.43a9.652 9.652 0 011.3-4.31 9.612 9.612 0 013.1-3.26l37.86-21.72a9.843 9.843 0 018.8 0l37.86 21.71z"/><path d="M1235.39 537.56a9.627 9.627 0 013.1 3.265 9.673 9.673 0 011.3 4.315v43.43a9.649 9.649 0 01-1.3 4.31 9.603 9.603 0 01-3.1 3.26l-37.86 21.71a9.82 9.82 0 01-8.8 0l-37.86-21.71a9.603 9.603 0 01-3.1-3.26 9.649 9.649 0 01-1.3-4.31v-43.43a9.652 9.652 0 011.3-4.31 9.612 9.612 0 013.1-3.26l37.86-21.72a9.843 9.843 0 018.8 0l37.86 21.71z"/></g><g style="mix-blend-mode:overlay"><path d="M1335.04 366.09a9.712 9.712 0 013.11 3.258 9.777 9.777 0 011.29 4.312v43.43a9.773 9.773 0 01-1.29 4.312 9.694 9.694 0 01-3.11 3.258l-37.86 21.71a9.862 9.862 0 01-4.41 1.042c-1.52 0-3.03-.357-4.4-1.042l-37.85-21.71a9.59 9.59 0 01-3.1-3.259 9.653 9.653 0 01-1.3-4.311v-43.43a9.652 9.652 0 011.3-4.31 9.603 9.603 0 013.1-3.26l37.86-21.71a9.82 9.82 0 018.8 0l37.86 21.71z"/><path d="M1335.04 366.09a9.712 9.712 0 013.11 3.258 9.777 9.777 0 011.29 4.312v43.43a9.773 9.773 0 01-1.29 4.312 9.694 9.694 0 01-3.11 3.258l-37.86 21.71a9.862 9.862 0 01-4.41 1.042c-1.52 0-3.03-.357-4.4-1.042l-37.85-21.71a9.59 9.59 0 01-3.1-3.259 9.653 9.653 0 01-1.3-4.311v-43.43a9.652 9.652 0 011.3-4.31 9.603 9.603 0 013.1-3.26l37.86-21.71a9.82 9.82 0 018.8 0l37.86 21.71z"/></g><g style="mix-blend-mode:overlay"><path d="M1288.38 515.85a9.875 9.875 0 014.4-1.039c1.53 0 3.04.356 4.41 1.039l37.86 21.72a9.59 9.59 0 013.1 3.259 9.653 9.653 0 011.3 4.311v43.43a9.78 9.78 0 01-1.3 4.311 9.725 9.725 0 01-3.11 3.259l-37.85 21.71a9.82 9.82 0 01-8.8 0l-37.86-21.71a9.612 9.612 0 01-3.1-3.26 9.652 9.652 0 01-1.3-4.31v-43.43c.09-1.52.53-2.998 1.3-4.315a9.627 9.627 0 013.1-3.265l37.85-21.71z"/><path d="M1288.38 515.85a9.875 9.875 0 014.4-1.039c1.53 0 3.04.356 4.41 1.039l37.86 21.72a9.59 9.59 0 013.1 3.259 9.653 9.653 0 011.3 4.311v43.43a9.78 9.78 0 01-1.3 4.311 9.725 9.725 0 01-3.11 3.259l-37.85 21.71a9.82 9.82 0 01-8.8 0l-37.86-21.71a9.612 9.612 0 01-3.1-3.26 9.652 9.652 0 01-1.3-4.31v-43.43c.09-1.52.53-2.998 1.3-4.315a9.627 9.627 0 013.1-3.265l37.85-21.71z"/></g><g style="mix-blend-mode:overlay"><path d="M1188.73 344.38a9.82 9.82 0 018.8 0l37.86 21.71a9.603 9.603 0 013.1 3.26 9.652 9.652 0 011.3 4.31v43.43a9.653 9.653 0 01-1.3 4.311 9.59 9.59 0 01-3.1 3.259l-37.86 21.71a9.82 9.82 0 01-8.8 0l-37.86-21.71a9.59 9.59 0 01-3.1-3.259 9.653 9.653 0 01-1.3-4.311v-43.43a9.652 9.652 0 011.3-4.31 9.603 9.603 0 013.1-3.26l37.86-21.71z"/><path d="M1188.73 344.38a9.82 9.82 0 018.8 0l37.86 21.71a9.603 9.603 0 013.1 3.26 9.652 9.652 0 011.3 4.31v43.43a9.653 9.653 0 01-1.3 4.311 9.59 9.59 0 01-3.1 3.259l-37.86 21.71a9.82 9.82 0 01-8.8 0l-37.86-21.71a9.59 9.59 0 01-3.1-3.259 9.653 9.653 0 01-1.3-4.311v-43.43a9.652 9.652 0 011.3-4.31 9.603 9.603 0 013.1-3.26l37.86-21.71z"/></g><g style="mix-blend-mode:overlay"><path d="M1188.73 172.9a9.82 9.82 0 018.8 0l37.86 21.72a9.694 9.694 0 013.11 3.258 9.773 9.773 0 011.29 4.312v43.42a9.673 9.673 0 01-1.3 4.315 9.609 9.609 0 01-3.1 3.265l-37.86 21.71a9.844 9.844 0 01-8.8 0l-37.86-21.72a9.694 9.694 0 01-3.11-3.258 9.773 9.773 0 01-1.29-4.312v-43.43a9.652 9.652 0 011.3-4.31 9.603 9.603 0 013.1-3.26l37.86-21.71z"/><path d="M1188.73 172.9a9.82 9.82 0 018.8 0l37.86 21.72a9.694 9.694 0 013.11 3.258 9.773 9.773 0 011.29 4.312v43.42a9.673 9.673 0 01-1.3 4.315 9.609 9.609 0 01-3.1 3.265l-37.86 21.71a9.844 9.844 0 01-8.8 0l-37.86-21.72a9.694 9.694 0 01-3.11-3.258 9.773 9.773 0 01-1.29-4.312v-43.43a9.652 9.652 0 011.3-4.31 9.603 9.603 0 013.1-3.26l37.86-21.71z"/></g><g style="mix-blend-mode:overlay"><path d="M1434.7 537.56a9.73 9.73 0 013.11 3.264 9.793 9.793 0 011.29 4.316v43.43a9.649 9.649 0 01-1.3 4.31 9.603 9.603 0 01-3.1 3.26l-37.86 21.71a9.862 9.862 0 01-4.41 1.042c-1.52 0-3.03-.357-4.4-1.042l-37.85-21.71a9.603 9.603 0 01-3.1-3.26 9.649 9.649 0 01-1.3-4.31v-43.43a9.652 9.652 0 011.3-4.31 9.612 9.612 0 013.1-3.26l37.86-21.72a9.843 9.843 0 018.8 0l37.86 21.71z"/><path d="M1434.7 537.56a9.73 9.73 0 013.11 3.264 9.793 9.793 0 011.29 4.316v43.43a9.649 9.649 0 01-1.3 4.31 9.603 9.603 0 01-3.1 3.26l-37.86 21.71a9.862 9.862 0 01-4.41 1.042c-1.52 0-3.03-.357-4.4-1.042l-37.85-21.71a9.603 9.603 0 01-3.1-3.26 9.649 9.649 0 01-1.3-4.31v-43.43a9.652 9.652 0 011.3-4.31 9.612 9.612 0 013.1-3.26l37.86-21.72a9.843 9.843 0 018.8 0l37.86 21.71z"/></g><g style="mix-blend-mode:overlay"><path d="M1733.68 537.56a9.75 9.75 0 013.11 3.264 9.801 9.801 0 011.3 4.316v43.43a9.66 9.66 0 01-1.3 4.313 9.7 9.7 0 01-3.11 3.257l-37.85 21.71a9.852 9.852 0 01-4.4 1.042c-1.53 0-3.04-.357-4.41-1.042l-37.85-21.71a9.603 9.603 0 01-3.1-3.26 9.649 9.649 0 01-1.3-4.31v-43.43a9.652 9.652 0 011.3-4.31 9.612 9.612 0 013.1-3.26l37.86-21.72a9.843 9.843 0 018.8 0l37.85 21.71z"/><path d="M1733.68 537.56a9.75 9.75 0 013.11 3.264 9.801 9.801 0 011.3 4.316v43.43a9.66 9.66 0 01-1.3 4.313 9.7 9.7 0 01-3.11 3.257l-37.85 21.71a9.852 9.852 0 01-4.4 1.042c-1.53 0-3.04-.357-4.41-1.042l-37.85-21.71a9.603 9.603 0 01-3.1-3.26 9.649 9.649 0 01-1.3-4.31v-43.43a9.652 9.652 0 011.3-4.31 9.612 9.612 0 013.1-3.26l37.86-21.72a9.843 9.843 0 018.8 0l37.85 21.71z"/></g><g style="mix-blend-mode:overlay"><path d="M1135.73 537.56a9.627 9.627 0 013.1 3.265 9.673 9.673 0 011.3 4.315v43.43a9.649 9.649 0 01-1.3 4.31 9.603 9.603 0 01-3.1 3.26l-37.86 21.71a9.82 9.82 0 01-8.8 0l-37.86-21.71a9.73 9.73 0 01-4.4-7.57v-43.43a9.723 9.723 0 014.4-7.57l37.86-21.72a9.843 9.843 0 018.8 0l37.86 21.71z"/><path d="M1135.73 537.56a9.627 9.627 0 013.1 3.265 9.673 9.673 0 011.3 4.315v43.43a9.649 9.649 0 01-1.3 4.31 9.603 9.603 0 01-3.1 3.26l-37.86 21.71a9.82 9.82 0 01-8.8 0l-37.86-21.71a9.73 9.73 0 01-4.4-7.57v-43.43a9.723 9.723 0 014.4-7.57l37.86-21.72a9.843 9.843 0 018.8 0l37.86 21.71z"/></g><g style="mix-blend-mode:overlay"><path d="M1135.73 366.09a9.59 9.59 0 013.1 3.259 9.653 9.653 0 011.3 4.311v43.43a9.773 9.773 0 01-1.29 4.312 9.694 9.694 0 01-3.11 3.258l-37.86 21.71a9.82 9.82 0 01-8.8 0l-37.86-21.71a9.615 9.615 0 01-3.1-3.261 9.648 9.648 0 01-1.3-4.309v-43.43a9.73 9.73 0 014.4-7.57l37.86-21.71a9.82 9.82 0 018.8 0l37.86 21.71z"/><path d="M1135.73 366.09a9.59 9.59 0 013.1 3.259 9.653 9.653 0 011.3 4.311v43.43a9.773 9.773 0 01-1.29 4.312 9.694 9.694 0 01-3.11 3.258l-37.86 21.71a9.82 9.82 0 01-8.8 0l-37.86-21.71a9.615 9.615 0 01-3.1-3.261 9.648 9.648 0 01-1.3-4.309v-43.43a9.73 9.73 0 014.4-7.57l37.86-21.71a9.82 9.82 0 018.8 0l37.86 21.71z"/></g><g style="mix-blend-mode:overlay"><path d="M1036.07 537.56a9.627 9.627 0 013.1 3.265 9.673 9.673 0 011.3 4.315v43.43a9.652 9.652 0 01-1.3 4.31 9.612 9.612 0 01-3.1 3.26l-37.86 21.71a9.811 9.811 0 01-8.8 0l-37.85-21.71a9.679 9.679 0 01-4.4-7.57v-43.43a9.665 9.665 0 011.3-4.312 9.665 9.665 0 013.11-3.258l37.85-21.72a9.862 9.862 0 018.81 0l37.84 21.71z"/><path d="M1036.07 537.56a9.627 9.627 0 013.1 3.265 9.673 9.673 0 011.3 4.315v43.43a9.652 9.652 0 01-1.3 4.31 9.612 9.612 0 01-3.1 3.26l-37.86 21.71a9.811 9.811 0 01-8.8 0l-37.85-21.71a9.679 9.679 0 01-4.4-7.57v-43.43a9.665 9.665 0 011.3-4.312 9.665 9.665 0 013.11-3.258l37.85-21.72a9.862 9.862 0 018.81 0l37.84 21.71z"/></g><g style="mix-blend-mode:overlay"><path d="M936.41 537.56a9.715 9.715 0 014.4 7.58v43.43a9.696 9.696 0 01-4.4 7.57l-37.85 21.71a9.832 9.832 0 01-8.81 0l-37.8-21.71a9.707 9.707 0 01-4.4-7.57v-43.43a9.712 9.712 0 011.297-4.31 9.717 9.717 0 013.103-3.26l37.86-21.72a9.84 9.84 0 018.8 0l37.8 21.71z"/><path d="M936.41 537.56a9.715 9.715 0 014.4 7.58v43.43a9.696 9.696 0 01-4.4 7.57l-37.85 21.71a9.832 9.832 0 01-8.81 0l-37.8-21.71a9.707 9.707 0 01-4.4-7.57v-43.43a9.712 9.712 0 011.297-4.31 9.717 9.717 0 013.103-3.26l37.86-21.72a9.84 9.84 0 018.8 0l37.8 21.71z"/></g><g style="mix-blend-mode:overlay"><path d="M936.41 366.09a9.698 9.698 0 014.4 7.57v43.43a9.705 9.705 0 01-4.4 7.58l-37.85 21.7a9.832 9.832 0 01-8.81 0l-37.8-21.71a9.656 9.656 0 01-4.4-7.57v-43.42a9.66 9.66 0 014.4-7.57l37.86-21.72a9.814 9.814 0 018.8 0l37.8 21.71z"/><path d="M936.41 366.09a9.698 9.698 0 014.4 7.57v43.43a9.705 9.705 0 01-4.4 7.58l-37.85 21.7a9.832 9.832 0 01-8.81 0l-37.8-21.71a9.656 9.656 0 01-4.4-7.57v-43.42a9.66 9.66 0 014.4-7.57l37.86-21.72a9.814 9.814 0 018.8 0l37.8 21.71z"/></g><g style="mix-blend-mode:overlay"><path d="M1085.89 451.83a9.694 9.694 0 013.11 3.258 9.773 9.773 0 011.29 4.312v43.43a9.653 9.653 0 01-1.3 4.311 9.59 9.59 0 01-3.1 3.259l-37.85 21.71a9.862 9.862 0 01-4.41 1.042c-1.52 0-3.03-.357-4.4-1.042l-37.85-21.71a9.685 9.685 0 01-4.4-7.57V459.4a9.627 9.627 0 014.4-7.57l37.86-21.72a9.867 9.867 0 018.8 0l37.85 21.72z"/><path d="M1085.89 451.83a9.694 9.694 0 013.11 3.258 9.773 9.773 0 011.29 4.312v43.43a9.653 9.653 0 01-1.3 4.311 9.59 9.59 0 01-3.1 3.259l-37.85 21.71a9.862 9.862 0 01-4.41 1.042c-1.52 0-3.03-.357-4.4-1.042l-37.85-21.71a9.685 9.685 0 01-4.4-7.57V459.4a9.627 9.627 0 014.4-7.57l37.86-21.72a9.867 9.867 0 018.8 0l37.85 21.72z"/></g><g style="mix-blend-mode:overlay"><path d="M986.23 451.83a9.656 9.656 0 014.4 7.57v43.43a9.685 9.685 0 01-4.4 7.57l-37.85 21.71a9.832 9.832 0 01-8.81 0l-37.85-21.71a9.682 9.682 0 01-4.4-7.57V459.4a9.685 9.685 0 014.4-7.57l37.85-21.72a9.888 9.888 0 018.81 0l37.85 21.72z"/><path d="M986.23 451.83a9.656 9.656 0 014.4 7.57v43.43a9.685 9.685 0 01-4.4 7.57l-37.85 21.71a9.832 9.832 0 01-8.81 0l-37.85-21.71a9.682 9.682 0 01-4.4-7.57V459.4a9.685 9.685 0 014.4-7.57l37.85-21.72a9.888 9.888 0 018.81 0l37.85 21.72z"/></g><g style="mix-blend-mode:overlay"><path d="M886.57 451.83a9.656 9.656 0 014.4 7.57v43.43a9.685 9.685 0 01-4.4 7.57l-37.86 21.71a9.811 9.811 0 01-8.8 0l-37.85-21.71a9.655 9.655 0 01-4.4-7.57V459.4a9.662 9.662 0 014.41-7.57l37.88-21.72a9.888 9.888 0 018.81 0l37.81 21.72z"/><path d="M886.57 451.83a9.656 9.656 0 014.4 7.57v43.43a9.685 9.685 0 01-4.4 7.57l-37.86 21.71a9.811 9.811 0 01-8.8 0l-37.85-21.71a9.655 9.655 0 01-4.4-7.57V459.4a9.662 9.662 0 014.41-7.57l37.88-21.72a9.888 9.888 0 018.81 0l37.81 21.72z"/></g><g style="mix-blend-mode:overlay"><path d="M1638.43 245.6a9.66 9.66 0 01-1.3 4.313 9.633 9.633 0 01-3.1 3.267l-37.87 21.71a9.82 9.82 0 01-8.8 0l-37.85-21.71a9.609 9.609 0 01-3.1-3.265 9.673 9.673 0 01-1.3-4.315v-43.42a9.652 9.652 0 011.3-4.31 9.603 9.603 0 013.1-3.26l37.85-21.71a9.82 9.82 0 018.8 0l37.87 21.71a9.723 9.723 0 014.4 7.57v43.42z"/><path d="M1638.43 245.6a9.66 9.66 0 01-1.3 4.313 9.633 9.633 0 01-3.1 3.267l-37.87 21.71a9.82 9.82 0 01-8.8 0l-37.85-21.71a9.609 9.609 0 01-3.1-3.265 9.673 9.673 0 01-1.3-4.315v-43.42a9.652 9.652 0 011.3-4.31 9.603 9.603 0 013.1-3.26l37.85-21.71a9.82 9.82 0 018.8 0l37.87 21.71a9.723 9.723 0 014.4 7.57v43.42z"/></g><g style="mix-blend-mode:overlay"><path d="M1538.77 245.61a9.653 9.653 0 01-1.3 4.311 9.59 9.59 0 01-3.1 3.259l-37.86 21.72a9.82 9.82 0 01-8.8 0l-37.86-21.72a9.59 9.59 0 01-3.1-3.259 9.653 9.653 0 01-1.3-4.311v-43.42a9.773 9.773 0 011.29-4.312 9.694 9.694 0 013.11-3.258l37.86-21.72a9.82 9.82 0 018.8 0l37.86 21.72a9.694 9.694 0 013.11 3.258 9.773 9.773 0 011.29 4.312v43.42z"/><path d="M1538.77 245.61a9.653 9.653 0 01-1.3 4.311 9.59 9.59 0 01-3.1 3.259l-37.86 21.72a9.82 9.82 0 01-8.8 0l-37.86-21.72a9.59 9.59 0 01-3.1-3.259 9.653 9.653 0 01-1.3-4.311v-43.42a9.773 9.773 0 011.29-4.312 9.694 9.694 0 013.11-3.258l37.86-21.72a9.82 9.82 0 018.8 0l37.86 21.72a9.694 9.694 0 013.11 3.258 9.773 9.773 0 011.29 4.312v43.42z"/></g><g style="mix-blend-mode:overlay"><path d="M1738.09 245.61a9.657 9.657 0 01-1.3 4.312 9.712 9.712 0 01-3.11 3.258l-37.85 21.72a9.852 9.852 0 01-4.4 1.042c-1.53 0-3.04-.357-4.41-1.042l-37.85-21.72a9.59 9.59 0 01-3.1-3.259 9.653 9.653 0 01-1.3-4.311v-43.42a9.773 9.773 0 011.29-4.312 9.694 9.694 0 013.11-3.258l37.85-21.72a9.862 9.862 0 014.41-1.042c1.52 0 3.03.357 4.4 1.042l37.85 21.72a9.7 9.7 0 013.11 3.257 9.66 9.66 0 011.3 4.313v43.42z"/><path d="M1738.09 245.61a9.657 9.657 0 01-1.3 4.312 9.712 9.712 0 01-3.11 3.258l-37.85 21.72a9.852 9.852 0 01-4.4 1.042c-1.53 0-3.04-.357-4.41-1.042l-37.85-21.72a9.59 9.59 0 01-3.1-3.259 9.653 9.653 0 01-1.3-4.311v-43.42a9.773 9.773 0 011.29-4.312 9.694 9.694 0 013.11-3.258l37.85-21.72a9.862 9.862 0 014.41-1.042c1.52 0 3.03.357 4.4 1.042l37.85 21.72a9.7 9.7 0 013.11 3.257 9.66 9.66 0 011.3 4.313v43.42z"/></g><g style="mix-blend-mode:overlay"><path d="M1584.19 280.35a9.592 9.592 0 013.11 3.256 9.665 9.665 0 011.3 4.314v43.43a9.773 9.773 0 01-1.29 4.312 9.694 9.694 0 01-3.11 3.258l-37.86 21.71a9.862 9.862 0 01-4.41 1.042c-1.52 0-3.03-.357-4.4-1.042l-37.85-21.71a9.694 9.694 0 01-3.11-3.258 9.773 9.773 0 01-1.29-4.312v-43.43a9.652 9.652 0 011.3-4.31 9.603 9.603 0 013.1-3.26l37.86-21.71a9.82 9.82 0 018.8 0l37.85 21.71z"/><path d="M1584.19 280.35a9.592 9.592 0 013.11 3.256 9.665 9.665 0 011.3 4.314v43.43a9.773 9.773 0 01-1.29 4.312 9.694 9.694 0 01-3.11 3.258l-37.86 21.71a9.862 9.862 0 01-4.41 1.042c-1.52 0-3.03-.357-4.4-1.042l-37.85-21.71a9.694 9.694 0 01-3.11-3.258 9.773 9.773 0 01-1.29-4.312v-43.43a9.652 9.652 0 011.3-4.31 9.603 9.603 0 013.1-3.26l37.86-21.71a9.82 9.82 0 018.8 0l37.85 21.71z"/></g><g style="mix-blend-mode:overlay"><path d="M1584.19 108.87a9.694 9.694 0 014.41 7.57v43.43a9.773 9.773 0 01-1.29 4.312 9.694 9.694 0 01-3.11 3.258l-37.86 21.72a9.886 9.886 0 01-4.41 1.039c-1.52 0-3.03-.356-4.4-1.039l-37.85-21.72a9.694 9.694 0 01-3.11-3.258 9.773 9.773 0 01-1.29-4.312v-43.43a9.652 9.652 0 011.3-4.31 9.603 9.603 0 013.1-3.26l37.86-21.71a9.818 9.818 0 018.8 0l37.85 21.71z"/><path d="M1584.19 108.87a9.694 9.694 0 014.41 7.57v43.43a9.773 9.773 0 01-1.29 4.312 9.694 9.694 0 01-3.11 3.258l-37.86 21.72a9.886 9.886 0 01-4.41 1.039c-1.52 0-3.03-.356-4.4-1.039l-37.85-21.72a9.694 9.694 0 01-3.11-3.258 9.773 9.773 0 01-1.29-4.312v-43.43a9.652 9.652 0 011.3-4.31 9.603 9.603 0 013.1-3.26l37.86-21.71a9.818 9.818 0 018.8 0l37.85 21.71z"/></g><g style="mix-blend-mode:overlay"><path d="M1683.85 108.87a9.712 9.712 0 013.11 3.258 9.777 9.777 0 011.29 4.312v43.43a9.773 9.773 0 01-1.29 4.312 9.694 9.694 0 01-3.11 3.258l-37.86 21.72a9.826 9.826 0 01-4.41 1.046c-1.52 0-3.03-.358-4.4-1.046l-37.85-21.71a9.694 9.694 0 01-3.11-3.258 9.773 9.773 0 01-1.29-4.312v-43.43c.09-1.52.53-2.998 1.29-4.315a9.734 9.734 0 013.11-3.265l37.86-21.71a9.818 9.818 0 018.8 0l37.86 21.71z"/><path d="M1683.85 108.87a9.712 9.712 0 013.11 3.258 9.777 9.777 0 011.29 4.312v43.43a9.773 9.773 0 01-1.29 4.312 9.694 9.694 0 01-3.11 3.258l-37.86 21.72a9.826 9.826 0 01-4.41 1.046c-1.52 0-3.03-.358-4.4-1.046l-37.85-21.71a9.694 9.694 0 01-3.11-3.258 9.773 9.773 0 01-1.29-4.312v-43.43c.09-1.52.53-2.998 1.29-4.315a9.734 9.734 0 013.11-3.265l37.86-21.71a9.818 9.818 0 018.8 0l37.86 21.71z"/></g><g style="mix-blend-mode:overlay"><path d="M1637.19 258.64a9.852 9.852 0 014.4-1.042c1.53 0 3.04.357 4.41 1.042l37.86 21.71a9.59 9.59 0 013.1 3.259 9.653 9.653 0 011.3 4.311v43.43a9.657 9.657 0 01-1.3 4.312 9.712 9.712 0 01-3.11 3.258L1646 360.63a9.82 9.82 0 01-8.8 0l-37.85-21.71a9.592 9.592 0 01-3.11-3.256 9.665 9.665 0 01-1.3-4.314v-43.43c.09-1.52.53-2.998 1.3-4.314a9.592 9.592 0 013.11-3.256l37.84-21.71z"/><path d="M1637.19 258.64a9.852 9.852 0 014.4-1.042c1.53 0 3.04.357 4.41 1.042l37.86 21.71a9.59 9.59 0 013.1 3.259 9.653 9.653 0 011.3 4.311v43.43a9.657 9.657 0 01-1.3 4.312 9.712 9.712 0 01-3.11 3.258L1646 360.63a9.82 9.82 0 01-8.8 0l-37.85-21.71a9.592 9.592 0 01-3.11-3.256 9.665 9.665 0 01-1.3-4.314v-43.43c.09-1.52.53-2.998 1.3-4.314a9.592 9.592 0 013.11-3.256l37.84-21.71z"/></g><g style="mix-blend-mode:overlay"><path d="M1288.38 172.9a9.852 9.852 0 014.4-1.042c1.53 0 3.04.357 4.41 1.042l37.86 21.72a9.694 9.694 0 013.11 3.258 9.773 9.773 0 011.29 4.312v43.42a9.673 9.673 0 01-1.3 4.316 9.73 9.73 0 01-3.11 3.264l-37.85 21.71a9.843 9.843 0 01-8.8 0l-37.86-21.72a9.694 9.694 0 01-3.11-3.258 9.773 9.773 0 01-1.29-4.312v-43.42c.09-1.52.53-2.999 1.3-4.315a9.609 9.609 0 013.1-3.265l37.85-21.71z"/><path d="M1288.38 172.9a9.852 9.852 0 014.4-1.042c1.53 0 3.04.357 4.41 1.042l37.86 21.72a9.694 9.694 0 013.11 3.258 9.773 9.773 0 011.29 4.312v43.42a9.673 9.673 0 01-1.3 4.316 9.73 9.73 0 01-3.11 3.264l-37.85 21.71a9.843 9.843 0 01-8.8 0l-37.86-21.72a9.694 9.694 0 01-3.11-3.258 9.773 9.773 0 01-1.29-4.312v-43.42c.09-1.52.53-2.999 1.3-4.315a9.609 9.609 0 013.1-3.265l37.85-21.71z"/></g><g style="mix-blend-mode:overlay"><path d="M1389.28 331.34a9.665 9.665 0 01-1.3 4.314 9.592 9.592 0 01-3.11 3.256l-37.85 21.72a9.82 9.82 0 01-8.8 0l-37.86-21.71a9.627 9.627 0 01-3.1-3.265 9.673 9.673 0 01-1.3-4.315v-43.42a9.653 9.653 0 011.3-4.311 9.59 9.59 0 013.1-3.259l37.86-21.71a9.82 9.82 0 018.8 0l37.85 21.71a9.592 9.592 0 013.11 3.256 9.665 9.665 0 011.3 4.314v43.42z"/><path d="M1389.28 331.34a9.665 9.665 0 01-1.3 4.314 9.592 9.592 0 01-3.11 3.256l-37.85 21.72a9.82 9.82 0 01-8.8 0l-37.86-21.71a9.627 9.627 0 01-3.1-3.265 9.673 9.673 0 01-1.3-4.315v-43.42a9.653 9.653 0 011.3-4.311 9.59 9.59 0 013.1-3.259l37.86-21.71a9.82 9.82 0 018.8 0l37.85 21.71a9.592 9.592 0 013.11 3.256 9.665 9.665 0 011.3 4.314v43.42z"/></g><g style="mix-blend-mode:overlay"><path d="M1389.28 502.83a9.665 9.665 0 01-1.3 4.314 9.592 9.592 0 01-3.11 3.256l-37.85 21.71a9.82 9.82 0 01-8.8 0l-37.86-21.71a9.59 9.59 0 01-3.1-3.259 9.653 9.653 0 01-1.3-4.311V459.4a9.652 9.652 0 011.3-4.31 9.603 9.603 0 013.1-3.26l37.86-21.71a9.82 9.82 0 018.8 0l37.85 21.71a9.694 9.694 0 014.41 7.57v43.43z"/><path d="M1389.28 502.83a9.665 9.665 0 01-1.3 4.314 9.592 9.592 0 01-3.11 3.256l-37.85 21.71a9.82 9.82 0 01-8.8 0l-37.86-21.71a9.59 9.59 0 01-3.1-3.259 9.653 9.653 0 01-1.3-4.311V459.4a9.652 9.652 0 011.3-4.31 9.603 9.603 0 013.1-3.26l37.86-21.71a9.82 9.82 0 018.8 0l37.85 21.71a9.694 9.694 0 014.41 7.57v43.43z"/></g><g style="mix-blend-mode:overlay"><path d="M1289.62 331.35a9.653 9.653 0 01-1.3 4.311 9.59 9.59 0 01-3.1 3.259l-37.86 21.71a9.862 9.862 0 01-4.41 1.042c-1.52 0-3.03-.357-4.4-1.042l-37.85-21.71a9.59 9.59 0 01-3.1-3.259 9.653 9.653 0 01-1.3-4.311v-43.42c.09-1.52.53-2.999 1.3-4.315a9.609 9.609 0 013.1-3.265l37.85-21.71a9.852 9.852 0 014.4-1.042c1.53 0 3.04.357 4.41 1.042l37.86 21.71a9.609 9.609 0 013.1 3.265 9.669 9.669 0 011.3 4.315v43.42z"/><path d="M1289.62 331.35a9.653 9.653 0 01-1.3 4.311 9.59 9.59 0 01-3.1 3.259l-37.86 21.71a9.862 9.862 0 01-4.41 1.042c-1.52 0-3.03-.357-4.4-1.042l-37.85-21.71a9.59 9.59 0 01-3.1-3.259 9.653 9.653 0 01-1.3-4.311v-43.42c.09-1.52.53-2.999 1.3-4.315a9.609 9.609 0 013.1-3.265l37.85-21.71a9.852 9.852 0 014.4-1.042c1.53 0 3.04.357 4.41 1.042l37.86 21.71a9.609 9.609 0 013.1 3.265 9.669 9.669 0 011.3 4.315v43.42z"/></g><g style="mix-blend-mode:overlay"><path d="M1488.95 331.35a9.665 9.665 0 01-1.3 4.314 9.592 9.592 0 01-3.11 3.256l-37.85 21.71a9.862 9.862 0 01-4.41 1.042c-1.52 0-3.03-.357-4.4-1.042l-37.85-21.71a9.59 9.59 0 01-3.1-3.259 9.653 9.653 0 01-1.3-4.311v-43.42c.09-1.52.53-2.999 1.3-4.315a9.609 9.609 0 013.1-3.265l37.85-21.71a9.852 9.852 0 014.4-1.042c1.53 0 3.04.357 4.41 1.042l37.85 21.71a9.61 9.61 0 013.11 3.262 9.677 9.677 0 011.3 4.318v43.42z"/><path d="M1488.95 331.35a9.665 9.665 0 01-1.3 4.314 9.592 9.592 0 01-3.11 3.256l-37.85 21.71a9.862 9.862 0 01-4.41 1.042c-1.52 0-3.03-.357-4.4-1.042l-37.85-21.71a9.59 9.59 0 01-3.1-3.259 9.653 9.653 0 01-1.3-4.311v-43.42c.09-1.52.53-2.999 1.3-4.315a9.609 9.609 0 013.1-3.265l37.85-21.71a9.852 9.852 0 014.4-1.042c1.53 0 3.04.357 4.41 1.042l37.85 21.71a9.61 9.61 0 013.11 3.262 9.677 9.677 0 011.3 4.318v43.42z"/></g><g style="mix-blend-mode:overlay"><path d="M1434.7 194.61a9.712 9.712 0 013.11 3.258 9.777 9.777 0 011.29 4.312v43.43a9.673 9.673 0 01-1.3 4.315 9.609 9.609 0 01-3.1 3.265l-37.86 21.71a9.886 9.886 0 01-4.41 1.039c-1.52 0-3.03-.356-4.4-1.039l-37.85-21.7a9.609 9.609 0 01-3.1-3.265 9.673 9.673 0 01-1.3-4.315v-43.43a9.773 9.773 0 011.29-4.312 9.694 9.694 0 013.11-3.258l37.86-21.72a9.82 9.82 0 018.8 0l37.86 21.71z"/><path d="M1434.7 194.61a9.712 9.712 0 013.11 3.258 9.777 9.777 0 011.29 4.312v43.43a9.673 9.673 0 01-1.3 4.315 9.609 9.609 0 01-3.1 3.265l-37.86 21.71a9.886 9.886 0 01-4.41 1.039c-1.52 0-3.03-.356-4.4-1.039l-37.85-21.7a9.609 9.609 0 01-3.1-3.265 9.673 9.673 0 01-1.3-4.315v-43.43a9.773 9.773 0 011.29-4.312 9.694 9.694 0 013.11-3.258l37.86-21.72a9.82 9.82 0 018.8 0l37.86 21.71z"/></g><g style="mix-blend-mode:overlay"><path d="M1388.04 344.38a9.82 9.82 0 018.8 0l37.87 21.71a9.603 9.603 0 013.1 3.26 9.652 9.652 0 011.3 4.31v43.43a9.657 9.657 0 01-1.3 4.312 9.712 9.712 0 01-3.11 3.258l-37.85 21.71a9.82 9.82 0 01-8.8 0l-37.86-21.71a9.612 9.612 0 01-3.1-3.26 9.652 9.652 0 01-1.3-4.31v-43.43a9.652 9.652 0 011.3-4.31 9.603 9.603 0 013.1-3.26l37.85-21.71z"/><path d="M1388.04 344.38a9.82 9.82 0 018.8 0l37.87 21.71a9.603 9.603 0 013.1 3.26 9.652 9.652 0 011.3 4.31v43.43a9.657 9.657 0 01-1.3 4.312 9.712 9.712 0 01-3.11 3.258l-37.85 21.71a9.82 9.82 0 01-8.8 0l-37.86-21.71a9.612 9.612 0 01-3.1-3.26 9.652 9.652 0 01-1.3-4.31v-43.43a9.652 9.652 0 011.3-4.31 9.603 9.603 0 013.1-3.26l37.85-21.71z"/></g><g style="mix-blend-mode:overlay"><path d="M1437.88 87.16a9.818 9.818 0 018.8 0l37.86 21.71a9.609 9.609 0 013.1 3.265 9.673 9.673 0 011.3 4.315v43.42a9.66 9.66 0 01-1.3 4.314 9.574 9.574 0 01-3.11 3.256l-37.85 21.72a9.82 9.82 0 01-8.8 0l-37.85-21.72a9.645 9.645 0 01-4.4-7.57v-43.43a9.777 9.777 0 011.29-4.312 9.712 9.712 0 013.11-3.258l37.85-21.71z"/><path d="M1437.88 87.16a9.818 9.818 0 018.8 0l37.86 21.71a9.609 9.609 0 013.1 3.265 9.673 9.673 0 011.3 4.315v43.42a9.66 9.66 0 01-1.3 4.314 9.574 9.574 0 01-3.11 3.256l-37.85 21.72a9.82 9.82 0 01-8.8 0l-37.85-21.72a9.645 9.645 0 01-4.4-7.57v-43.43a9.777 9.777 0 011.29-4.312 9.712 9.712 0 013.11-3.258l37.85-21.71z"/></g><g style="mix-blend-mode:overlay"><path d="M1638.43 74.13a9.654 9.654 0 01-1.3 4.31 9.591 9.591 0 01-3.1 3.26l-37.86 21.72a9.862 9.862 0 01-4.41 1.042c-1.52 0-3.03-.357-4.4-1.042l-37.85-21.71a9.621 9.621 0 01-3.1-3.265 9.67 9.67 0 01-1.3-4.315V30.71c.09-1.52.53-2.997 1.29-4.312a9.7 9.7 0 013.11-3.258l37.85-21.72a9.9 9.9 0 018.81 0l37.86 21.72a9.7 9.7 0 013.11 3.258 9.775 9.775 0 011.29 4.312v43.42z"/><path d="M1638.43 74.13a9.654 9.654 0 01-1.3 4.31 9.591 9.591 0 01-3.1 3.26l-37.86 21.72a9.862 9.862 0 01-4.41 1.042c-1.52 0-3.03-.357-4.4-1.042l-37.85-21.71a9.621 9.621 0 01-3.1-3.265 9.67 9.67 0 01-1.3-4.315V30.71c.09-1.52.53-2.997 1.29-4.312a9.7 9.7 0 013.11-3.258l37.85-21.72a9.9 9.9 0 018.81 0l37.86 21.72a9.7 9.7 0 013.11 3.258 9.775 9.775 0 011.29 4.312v43.42z"/></g><g style="mix-blend-mode:overlay"><path d="M1534.37 23.13a9.608 9.608 0 013.1 3.26 9.65 9.65 0 011.3 4.31v43.44a9.65 9.65 0 01-1.3 4.31 9.608 9.608 0 01-3.1 3.26l-37.86 21.71a9.844 9.844 0 01-8.8 0l-37.86-21.7a9.638 9.638 0 01-3.1-3.266 9.666 9.666 0 01-1.3-4.314V30.71c.09-1.52.53-2.997 1.29-4.312a9.7 9.7 0 013.11-3.258l37.86-21.72a9.817 9.817 0 018.8 0l37.86 21.71z"/><path d="M1534.37 23.13a9.608 9.608 0 013.1 3.26 9.65 9.65 0 011.3 4.31v43.44a9.65 9.65 0 01-1.3 4.31 9.608 9.608 0 01-3.1 3.26l-37.86 21.71a9.844 9.844 0 01-8.8 0l-37.86-21.7a9.638 9.638 0 01-3.1-3.266 9.666 9.666 0 01-1.3-4.314V30.71c.09-1.52.53-2.997 1.29-4.312a9.7 9.7 0 013.11-3.258l37.86-21.72a9.817 9.817 0 018.8 0l37.86 21.71z"/></g><g style="mix-blend-mode:overlay"><path d="M1687.02 1.42a9.858 9.858 0 014.41-1.042c1.52 0 3.03.357 4.4 1.042l37.86 21.71a9.608 9.608 0 013.1 3.26 9.65 9.65 0 011.3 4.31v43.43a9.662 9.662 0 01-1.3 4.314 9.588 9.588 0 01-3.11 3.256l-37.85 21.71a9.82 9.82 0 01-8.8 0l-37.86-21.71a9.59 9.59 0 01-3.1-3.26 9.654 9.654 0 01-1.3-4.31V30.7a9.65 9.65 0 011.3-4.31 9.608 9.608 0 013.1-3.26l37.85-21.71z"/><path d="M1687.02 1.42a9.858 9.858 0 014.41-1.042c1.52 0 3.03.357 4.4 1.042l37.86 21.71a9.608 9.608 0 013.1 3.26 9.65 9.65 0 011.3 4.31v43.43a9.662 9.662 0 01-1.3 4.314 9.588 9.588 0 01-3.11 3.256l-37.85 21.71a9.82 9.82 0 01-8.8 0l-37.86-21.71a9.59 9.59 0 01-3.1-3.26 9.654 9.654 0 01-1.3-4.31V30.7a9.65 9.65 0 011.3-4.31 9.608 9.608 0 013.1-3.26l37.85-21.71z"/></g><g style="mix-blend-mode:overlay"><path d="M1339.45 74.12a9.672 9.672 0 01-1.3 4.315 9.612 9.612 0 01-3.1 3.265l-37.86 21.71a9.82 9.82 0 01-8.8 0l-37.86-21.71a9.612 9.612 0 01-3.1-3.265 9.672 9.672 0 01-1.3-4.315V30.71c.09-1.52.53-2.998 1.3-4.315a9.614 9.614 0 013.1-3.265l37.86-21.71a9.817 9.817 0 018.8 0l37.86 21.71a9.614 9.614 0 013.1 3.265 9.673 9.673 0 011.3 4.315v43.41z"/><path d="M1339.45 74.12a9.672 9.672 0 01-1.3 4.315 9.612 9.612 0 01-3.1 3.265l-37.86 21.71a9.82 9.82 0 01-8.8 0l-37.86-21.71a9.612 9.612 0 01-3.1-3.265 9.672 9.672 0 01-1.3-4.315V30.71c.09-1.52.53-2.998 1.3-4.315a9.614 9.614 0 013.1-3.265l37.86-21.71a9.817 9.817 0 018.8 0l37.86 21.71a9.614 9.614 0 013.1 3.265 9.673 9.673 0 011.3 4.315v43.41z"/></g><g style="mix-blend-mode:overlay"><path d="M1439.11 74.13a9.654 9.654 0 01-1.3 4.31 9.59 9.59 0 01-3.1 3.26l-37.86 21.72a9.82 9.82 0 01-8.8 0l-37.86-21.71a9.621 9.621 0 01-3.1-3.265 9.67 9.67 0 01-1.3-4.315V30.71c.09-1.52.53-2.997 1.29-4.312a9.7 9.7 0 013.11-3.258l37.86-21.72a9.87 9.87 0 018.8 0l37.86 21.72a9.7 9.7 0 013.11 3.258 9.775 9.775 0 011.29 4.312v43.42z"/><path d="M1439.11 74.13a9.654 9.654 0 01-1.3 4.31 9.59 9.59 0 01-3.1 3.26l-37.86 21.72a9.82 9.82 0 01-8.8 0l-37.86-21.71a9.621 9.621 0 01-3.1-3.265 9.67 9.67 0 01-1.3-4.315V30.71c.09-1.52.53-2.997 1.29-4.312a9.7 9.7 0 013.11-3.258l37.86-21.72a9.87 9.87 0 018.8 0l37.86 21.72a9.7 9.7 0 013.11 3.258 9.775 9.775 0 011.29 4.312v43.42z"/></g><g style="mix-blend-mode:overlay"><path d="M1036.06 23.13a9.707 9.707 0 013.11 3.259 9.773 9.773 0 011.29 4.311v43.43a9.68 9.68 0 01-1.3 4.318 9.61 9.61 0 01-3.11 3.262l-37.84 21.71a9.862 9.862 0 01-8.81 0L951.56 81.7a9.658 9.658 0 01-4.41-7.57V30.71a9.705 9.705 0 014.4-7.58l37.86-21.71a9.81 9.81 0 018.8 0l37.85 21.71z"/><path d="M1036.06 23.13a9.707 9.707 0 013.11 3.259 9.773 9.773 0 011.29 4.311v43.43a9.68 9.68 0 01-1.3 4.318 9.61 9.61 0 01-3.11 3.262l-37.84 21.71a9.862 9.862 0 01-8.81 0L951.56 81.7a9.658 9.658 0 01-4.41-7.57V30.71a9.705 9.705 0 014.4-7.58l37.86-21.71a9.81 9.81 0 018.8 0l37.85 21.71z"/></g><g style="mix-blend-mode:overlay"><path d="M1338.22 87.16a9.818 9.818 0 018.8 0l37.86 21.71a9.609 9.609 0 013.1 3.265 9.673 9.673 0 011.3 4.315v43.42a9.66 9.66 0 01-1.3 4.314 9.574 9.574 0 01-3.11 3.256l-37.85 21.72a9.82 9.82 0 01-8.8 0l-37.86-21.72a9.694 9.694 0 01-3.11-3.258 9.773 9.773 0 01-1.29-4.312v-43.43a9.652 9.652 0 011.3-4.31 9.603 9.603 0 013.1-3.26l37.86-21.71z"/><path d="M1338.22 87.16a9.818 9.818 0 018.8 0l37.86 21.71a9.609 9.609 0 013.1 3.265 9.673 9.673 0 011.3 4.315v43.42a9.66 9.66 0 01-1.3 4.314 9.574 9.574 0 01-3.11 3.256l-37.85 21.72a9.82 9.82 0 01-8.8 0l-37.86-21.72a9.694 9.694 0 01-3.11-3.258 9.773 9.773 0 01-1.29-4.312v-43.43a9.652 9.652 0 011.3-4.31 9.603 9.603 0 013.1-3.26l37.86-21.71z"/></g><g style="mix-blend-mode:overlay"><path d="M1239.79 74.13a9.654 9.654 0 01-1.3 4.31 9.59 9.59 0 01-3.1 3.26l-37.86 21.72a9.867 9.867 0 01-8.8 0l-37.86-21.71a9.621 9.621 0 01-3.1-3.265 9.67 9.67 0 01-1.3-4.315V30.71c.09-1.52.53-2.997 1.29-4.312a9.7 9.7 0 013.11-3.258l37.86-21.72a9.817 9.817 0 018.8 0l37.86 21.72a9.7 9.7 0 013.11 3.258 9.775 9.775 0 011.29 4.312v43.42z"/><path d="M1239.79 74.13a9.654 9.654 0 01-1.3 4.31 9.59 9.59 0 01-3.1 3.26l-37.86 21.72a9.867 9.867 0 01-8.8 0l-37.86-21.71a9.621 9.621 0 01-3.1-3.265 9.67 9.67 0 01-1.3-4.315V30.71c.09-1.52.53-2.997 1.29-4.312a9.7 9.7 0 013.11-3.258l37.86-21.72a9.817 9.817 0 018.8 0l37.86 21.72a9.7 9.7 0 013.11 3.258 9.775 9.775 0 011.29 4.312v43.42z"/></g><g style="mix-blend-mode:overlay"><path d="M1285.22 108.87a9.603 9.603 0 013.1 3.26 9.652 9.652 0 011.3 4.31v43.43a9.773 9.773 0 01-1.29 4.312 9.694 9.694 0 01-3.11 3.258l-37.86 21.72a9.862 9.862 0 01-4.41 1.042c-1.52 0-3.03-.357-4.4-1.042l-37.85-21.72a9.694 9.694 0 01-3.11-3.258 9.773 9.773 0 01-1.29-4.312v-43.42c.09-1.52.53-2.998 1.3-4.315a9.609 9.609 0 013.1-3.265l37.86-21.71a9.818 9.818 0 018.8 0l37.86 21.71z"/><path d="M1285.22 108.87a9.603 9.603 0 013.1 3.26 9.652 9.652 0 011.3 4.31v43.43a9.773 9.773 0 01-1.29 4.312 9.694 9.694 0 01-3.11 3.258l-37.86 21.72a9.862 9.862 0 01-4.41 1.042c-1.52 0-3.03-.357-4.4-1.042l-37.85-21.72a9.694 9.694 0 01-3.11-3.258 9.773 9.773 0 01-1.29-4.312v-43.42c.09-1.52.53-2.998 1.3-4.315a9.609 9.609 0 013.1-3.265l37.86-21.71a9.818 9.818 0 018.8 0l37.86 21.71z"/></g><g style="mix-blend-mode:overlay"><path d="M1090.3 159.86a9.773 9.773 0 01-1.29 4.312 9.694 9.694 0 01-3.11 3.258l-37.86 21.72a9.82 9.82 0 01-8.8 0l-37.86-21.71a9.705 9.705 0 01-4.4-7.58v-43.42a9.712 9.712 0 011.297-4.31 9.659 9.659 0 013.103-3.26l37.86-21.71a9.818 9.818 0 018.8 0l37.91 21.71a9.603 9.603 0 013.1 3.26 9.652 9.652 0 011.3 4.31l-.05 43.42z"/><path d="M1090.3 159.86a9.773 9.773 0 01-1.29 4.312 9.694 9.694 0 01-3.11 3.258l-37.86 21.72a9.82 9.82 0 01-8.8 0l-37.86-21.71a9.705 9.705 0 01-4.4-7.58v-43.42a9.712 9.712 0 011.297-4.31 9.659 9.659 0 013.103-3.26l37.86-21.71a9.818 9.818 0 018.8 0l37.91 21.71a9.603 9.603 0 013.1 3.26 9.652 9.652 0 011.3 4.31l-.05 43.42z"/></g><g style="mix-blend-mode:overlay"><path d="M1189.95 159.87a9.653 9.653 0 01-1.3 4.311 9.59 9.59 0 01-3.1 3.259l-37.86 21.72a9.82 9.82 0 01-8.8 0l-37.85-21.72a9.59 9.59 0 01-3.1-3.259 9.653 9.653 0 01-1.3-4.311v-43.42c.09-1.52.53-2.998 1.3-4.315a9.609 9.609 0 013.1-3.265l37.91-21.71a9.818 9.818 0 018.8 0l37.86 21.71a9.609 9.609 0 013.1 3.265 9.673 9.673 0 011.3 4.315l-.06 43.42z"/><path d="M1189.95 159.87a9.653 9.653 0 01-1.3 4.311 9.59 9.59 0 01-3.1 3.259l-37.86 21.72a9.82 9.82 0 01-8.8 0l-37.85-21.72a9.59 9.59 0 01-3.1-3.259 9.653 9.653 0 01-1.3-4.311v-43.42c.09-1.52.53-2.998 1.3-4.315a9.609 9.609 0 013.1-3.265l37.91-21.71a9.818 9.818 0 018.8 0l37.86 21.71a9.609 9.609 0 013.1 3.265 9.673 9.673 0 011.3 4.315l-.06 43.42z"/></g><g style="mix-blend-mode:overlay"><path d="M1135.72 23.13a9.701 9.701 0 013.11 3.258 9.657 9.657 0 011.3 4.312v43.44a9.65 9.65 0 01-1.3 4.31 9.608 9.608 0 01-3.1 3.26l-37.86 21.71a9.844 9.844 0 01-8.8 0l-37.86-21.7a9.612 9.612 0 01-3.1-3.265 9.672 9.672 0 01-1.3-4.315V30.71c.09-1.52.53-2.997 1.29-4.312a9.7 9.7 0 013.11-3.258l37.86-21.72a9.817 9.817 0 018.8 0l37.85 21.71z"/><path d="M1135.72 23.13a9.701 9.701 0 013.11 3.258 9.657 9.657 0 011.3 4.312v43.44a9.65 9.65 0 01-1.3 4.31 9.608 9.608 0 01-3.1 3.26l-37.86 21.71a9.844 9.844 0 01-8.8 0l-37.86-21.7a9.612 9.612 0 01-3.1-3.265 9.672 9.672 0 01-1.3-4.315V30.71c.09-1.52.53-2.997 1.29-4.312a9.7 9.7 0 013.11-3.258l37.86-21.72a9.817 9.817 0 018.8 0l37.85 21.71z"/></g><g style="mix-blend-mode:overlay"><path d="M1089.07 172.9a9.82 9.82 0 018.8 0l37.86 21.71a9.609 9.609 0 013.1 3.265 9.673 9.673 0 011.3 4.315v43.42a9.66 9.66 0 01-1.3 4.314 9.574 9.574 0 01-3.11 3.256l-37.85 21.71a9.82 9.82 0 01-8.8 0l-37.86-21.71a9.694 9.694 0 01-3.11-3.258 9.773 9.773 0 01-1.29-4.312v-43.43a9.723 9.723 0 014.4-7.57l37.86-21.71z"/><path d="M1089.07 172.9a9.82 9.82 0 018.8 0l37.86 21.71a9.609 9.609 0 013.1 3.265 9.673 9.673 0 011.3 4.315v43.42a9.66 9.66 0 01-1.3 4.314 9.574 9.574 0 01-3.11 3.256l-37.85 21.71a9.82 9.82 0 01-8.8 0l-37.86-21.71a9.694 9.694 0 01-3.11-3.258 9.773 9.773 0 01-1.29-4.312v-43.43a9.723 9.723 0 014.4-7.57l37.86-21.71z"/></g><g style="mix-blend-mode:overlay"><path d="M889.74 172.9a9.835 9.835 0 018.81 0l37.86 21.71a9.69 9.69 0 014.4 7.58v43.42a9.656 9.656 0 01-4.4 7.57l-37.86 21.71a9.814 9.814 0 01-8.8 0l-37.86-21.71a9.656 9.656 0 01-4.4-7.57v-43.43a9.698 9.698 0 014.4-7.57l37.85-21.71z"/><path d="M889.74 172.9a9.835 9.835 0 018.81 0l37.86 21.71a9.69 9.69 0 014.4 7.58v43.42a9.656 9.656 0 01-4.4 7.57l-37.86 21.71a9.814 9.814 0 01-8.8 0l-37.86-21.71a9.656 9.656 0 01-4.4-7.57v-43.43a9.698 9.698 0 014.4-7.57l37.85-21.71z"/></g><g style="mix-blend-mode:overlay"><path d="M940.8 74.13a9.692 9.692 0 01-4.39 7.57l-37.86 21.72a9.888 9.888 0 01-8.81 0l-37.85-21.71a9.71 9.71 0 01-4.4-7.58V30.71a9.65 9.65 0 014.4-7.57l37.85-21.72a9.83 9.83 0 018.81 0l37.86 21.72a9.671 9.671 0 014.39 7.57v43.42z"/><path d="M940.8 74.13a9.692 9.692 0 01-4.39 7.57l-37.86 21.72a9.888 9.888 0 01-8.81 0l-37.85-21.71a9.71 9.71 0 01-4.4-7.58V30.71a9.65 9.65 0 014.4-7.57l37.85-21.72a9.83 9.83 0 018.81 0l37.86 21.72a9.671 9.671 0 014.39 7.57v43.42z"/></g><g style="mix-blend-mode:overlay"><path d="M986.23 108.87a9.679 9.679 0 014.4 7.57v43.43a9.604 9.604 0 01-4.4 7.57l-37.85 21.72a9.832 9.832 0 01-8.81 0l-37.85-21.72a9.656 9.656 0 01-4.4-7.57v-43.42a9.705 9.705 0 014.4-7.58l37.86-21.71a9.812 9.812 0 018.8 0l37.85 21.71z"/><path d="M986.23 108.87a9.679 9.679 0 014.4 7.57v43.43a9.604 9.604 0 01-4.4 7.57l-37.85 21.72a9.832 9.832 0 01-8.81 0l-37.85-21.72a9.656 9.656 0 01-4.4-7.57v-43.42a9.705 9.705 0 014.4-7.58l37.86-21.71a9.812 9.812 0 018.8 0l37.85 21.71z"/></g><g style="mix-blend-mode:overlay"><path d="M890.95 331.34a9.665 9.665 0 01-1.3 4.312 9.665 9.665 0 01-3.11 3.258l-37.86 21.72a9.814 9.814 0 01-8.8 0l-37.85-21.71a9.7 9.7 0 01-4.4-7.58v-43.42a9.685 9.685 0 014.4-7.57l37.92-21.71a9.814 9.814 0 018.8 0l37.86 21.71a9.69 9.69 0 014.41 7.57l-.07 43.42z"/><path d="M890.95 331.34a9.665 9.665 0 01-1.3 4.312 9.665 9.665 0 01-3.11 3.258l-37.86 21.72a9.814 9.814 0 01-8.8 0l-37.85-21.71a9.7 9.7 0 01-4.4-7.58v-43.42a9.685 9.685 0 014.4-7.57l37.92-21.71a9.814 9.814 0 018.8 0l37.86 21.71a9.69 9.69 0 014.41 7.57l-.07 43.42z"/></g><g style="mix-blend-mode:overlay"><path d="M890.95 159.87a9.69 9.69 0 01-4.41 7.57l-37.86 21.72a9.814 9.814 0 01-8.8 0l-37.82-21.72a9.682 9.682 0 01-4.4-7.57v-43.42a9.705 9.705 0 014.4-7.58l37.89-21.71a9.812 9.812 0 018.8 0l37.86 21.71a9.708 9.708 0 014.34 7.58v43.42z"/><path d="M890.95 159.87a9.69 9.69 0 01-4.41 7.57l-37.86 21.72a9.814 9.814 0 01-8.8 0l-37.82-21.72a9.682 9.682 0 01-4.4-7.57v-43.42a9.705 9.705 0 014.4-7.58l37.89-21.71a9.812 9.812 0 018.8 0l37.86 21.71a9.708 9.708 0 014.34 7.58v43.42z"/></g><g style="mix-blend-mode:overlay"><path d="M1185.55 280.35a9.592 9.592 0 013.11 3.256 9.665 9.665 0 011.3 4.314v43.43a9.773 9.773 0 01-1.29 4.312 9.694 9.694 0 01-3.11 3.258l-37.86 21.71a9.862 9.862 0 01-4.41 1.042c-1.52 0-3.03-.357-4.4-1.042l-37.85-21.71a9.694 9.694 0 01-3.11-3.258 9.773 9.773 0 01-1.29-4.312v-43.42c.09-1.52.53-2.998 1.3-4.315a9.609 9.609 0 013.1-3.265l37.91-21.71a9.82 9.82 0 018.8 0l37.8 21.71z"/><path d="M1185.55 280.35a9.592 9.592 0 013.11 3.256 9.665 9.665 0 011.3 4.314v43.43a9.773 9.773 0 01-1.29 4.312 9.694 9.694 0 01-3.11 3.258l-37.86 21.71a9.862 9.862 0 01-4.41 1.042c-1.52 0-3.03-.357-4.4-1.042l-37.85-21.71a9.694 9.694 0 01-3.11-3.258 9.773 9.773 0 01-1.29-4.312v-43.42c.09-1.52.53-2.998 1.3-4.315a9.609 9.609 0 013.1-3.265l37.91-21.71a9.82 9.82 0 018.8 0l37.8 21.71z"/></g><g style="mix-blend-mode:overlay"><path d="M990.64 331.35a9.7 9.7 0 01-4.4 7.57l-37.86 21.71a9.832 9.832 0 01-8.81 0l-37.85-21.71a9.717 9.717 0 01-3.103-3.26 9.712 9.712 0 01-1.297-4.31v-43.43a9.685 9.685 0 014.4-7.57l37.85-21.71a9.835 9.835 0 018.81 0l37.86 21.71a9.682 9.682 0 014.4 7.57v43.43z"/><path d="M990.64 331.35a9.7 9.7 0 01-4.4 7.57l-37.86 21.71a9.832 9.832 0 01-8.81 0l-37.85-21.71a9.717 9.717 0 01-3.103-3.26 9.712 9.712 0 01-1.297-4.31v-43.43a9.685 9.685 0 014.4-7.57l37.85-21.71a9.835 9.835 0 018.81 0l37.86 21.71a9.682 9.682 0 014.4 7.57v43.43z"/></g><g style="mix-blend-mode:overlay"><path d="M1090.29 331.35a9.652 9.652 0 01-1.29 4.313 9.7 9.7 0 01-3.11 3.257l-37.85 21.71a9.82 9.82 0 01-8.8 0l-37.86-21.71a9.685 9.685 0 01-4.4-7.57v-43.42a9.705 9.705 0 014.4-7.58l37.86-21.71a9.82 9.82 0 018.8 0l37.85 21.71a9.665 9.665 0 014.4 7.58v43.42z"/><path d="M1090.29 331.35a9.652 9.652 0 01-1.29 4.313 9.7 9.7 0 01-3.11 3.257l-37.85 21.71a9.82 9.82 0 01-8.8 0l-37.86-21.71a9.685 9.685 0 01-4.4-7.57v-43.42a9.705 9.705 0 014.4-7.58l37.86-21.71a9.82 9.82 0 018.8 0l37.85 21.71a9.665 9.665 0 014.4 7.58v43.42z"/></g><g style="mix-blend-mode:overlay"><path d="M1036.06 194.61a9.665 9.665 0 014.4 7.58v43.42a9.68 9.68 0 01-1.3 4.318 9.61 9.61 0 01-3.11 3.262L998.2 274.9a9.835 9.835 0 01-8.81 0l-37.84-21.71a9.686 9.686 0 01-4.41-7.58v-43.42a9.656 9.656 0 014.4-7.57l37.86-21.72a9.84 9.84 0 018.8 0l37.86 21.71z"/><path d="M1036.06 194.61a9.665 9.665 0 014.4 7.58v43.42a9.68 9.68 0 01-1.3 4.318 9.61 9.61 0 01-3.11 3.262L998.2 274.9a9.835 9.835 0 01-8.81 0l-37.84-21.71a9.686 9.686 0 01-4.41-7.58v-43.42a9.656 9.656 0 014.4-7.57l37.86-21.72a9.84 9.84 0 018.8 0l37.86 21.71z"/></g><g style="mix-blend-mode:overlay"><path d="M989.4 344.38a9.835 9.835 0 018.81 0l37.86 21.71a9.609 9.609 0 013.1 3.265 9.669 9.669 0 011.3 4.315v43.42a9.673 9.673 0 01-1.3 4.316 9.73 9.73 0 01-3.11 3.264l-37.85 21.7a9.811 9.811 0 01-8.8 0l-37.85-21.71a9.662 9.662 0 01-3.114-3.256 9.66 9.66 0 01-1.296-4.314v-43.43a9.673 9.673 0 014.41-7.57l37.84-21.71z"/><path d="M989.4 344.38a9.835 9.835 0 018.81 0l37.86 21.71a9.609 9.609 0 013.1 3.265 9.669 9.669 0 011.3 4.315v43.42a9.673 9.673 0 01-1.3 4.316 9.73 9.73 0 01-3.11 3.264l-37.85 21.7a9.811 9.811 0 01-8.8 0l-37.85-21.71a9.662 9.662 0 01-3.114-3.256 9.66 9.66 0 01-1.296-4.314v-43.43a9.673 9.673 0 014.41-7.57l37.84-21.71z"/></g><g style="mix-blend-mode:overlay"><path d="M1733.68 366.09a9.725 9.725 0 013.11 3.259 9.78 9.78 0 011.3 4.311v43.43a9.66 9.66 0 01-1.3 4.314 9.574 9.574 0 01-3.11 3.256l-37.85 21.71a9.852 9.852 0 01-4.4 1.042c-1.53 0-3.04-.357-4.41-1.042l-37.85-21.71a9.59 9.59 0 01-3.1-3.259 9.653 9.653 0 01-1.3-4.311v-43.43a9.652 9.652 0 011.3-4.31 9.603 9.603 0 013.1-3.26l37.86-21.71a9.82 9.82 0 018.8 0l37.85 21.71z"/><path d="M1733.68 366.09a9.725 9.725 0 013.11 3.259 9.78 9.78 0 011.3 4.311v43.43a9.66 9.66 0 01-1.3 4.314 9.574 9.574 0 01-3.11 3.256l-37.85 21.71a9.852 9.852 0 01-4.4 1.042c-1.53 0-3.04-.357-4.41-1.042l-37.85-21.71a9.59 9.59 0 01-3.1-3.259 9.653 9.653 0 01-1.3-4.311v-43.43a9.652 9.652 0 011.3-4.31 9.603 9.603 0 013.1-3.26l37.86-21.71a9.82 9.82 0 018.8 0l37.85 21.71z"/></g><g style="mix-blend-mode:overlay"><path d="M791.32 502.82a9.71 9.71 0 01-4.4 7.57l-37.86 21.72a9.835 9.835 0 01-8.81 0l-37.85-21.72a9.682 9.682 0 01-4.4-7.57V459.4a9.656 9.656 0 014.4-7.57l37.85-21.72a9.888 9.888 0 018.81 0l37.89 21.72a9.691 9.691 0 014.4 7.57l-.03 43.42z"/><path d="M791.32 502.82a9.71 9.71 0 01-4.4 7.57l-37.86 21.72a9.835 9.835 0 01-8.81 0l-37.85-21.72a9.682 9.682 0 01-4.4-7.57V459.4a9.656 9.656 0 014.4-7.57l37.85-21.72a9.888 9.888 0 018.81 0l37.89 21.72a9.691 9.691 0 014.4 7.57l-.03 43.42z"/></g><g style="mix-blend-mode:overlay"><path d="M691.66 502.83a9.628 9.628 0 01-4.41 7.56l-37.85 21.72a9.811 9.811 0 01-8.8 0l-37.86-21.71a9.682 9.682 0 01-4.4-7.57V459.4a9.698 9.698 0 014.4-7.57l37.86-21.71a9.814 9.814 0 018.8 0l37.85 21.71a9.665 9.665 0 013.11 3.258 9.665 9.665 0 011.3 4.312v43.43z"/><path d="M691.66 502.83a9.628 9.628 0 01-4.41 7.56l-37.85 21.72a9.811 9.811 0 01-8.8 0l-37.86-21.71a9.682 9.682 0 01-4.4-7.57V459.4a9.698 9.698 0 014.4-7.57l37.86-21.71a9.814 9.814 0 018.8 0l37.85 21.71a9.665 9.665 0 013.11 3.258 9.665 9.665 0 011.3 4.312v43.43z"/></g><g style="mix-blend-mode:overlay"><path d="M737.08 537.56a9.69 9.69 0 013.11 3.263 9.69 9.69 0 011.3 4.317v43.43a9.707 9.707 0 01-4.4 7.57l-37.86 21.71a9.814 9.814 0 01-8.8 0l-37.86-21.71a9.698 9.698 0 01-4.4-7.57v-43.43a9.7 9.7 0 014.4-7.57l37.86-21.72a9.84 9.84 0 018.8 0l37.85 21.71z"/><path d="M737.08 537.56a9.69 9.69 0 013.11 3.263 9.69 9.69 0 011.3 4.317v43.43a9.707 9.707 0 01-4.4 7.57l-37.86 21.71a9.814 9.814 0 01-8.8 0l-37.86-21.71a9.698 9.698 0 01-4.4-7.57v-43.43a9.7 9.7 0 014.4-7.57l37.86-21.72a9.84 9.84 0 018.8 0l37.85 21.71z"/></g><g style="mix-blend-mode:overlay"><path d="M836.74 366.09a9.688 9.688 0 014.4 7.57v43.43a9.656 9.656 0 01-4.4 7.57l-37.86 21.71a9.832 9.832 0 01-8.81 0l-37.85-21.71a9.682 9.682 0 01-4.4-7.57v-43.43a9.707 9.707 0 014.4-7.57l37.86-21.71a9.814 9.814 0 018.8 0l37.86 21.71z"/><path d="M836.74 366.09a9.688 9.688 0 014.4 7.57v43.43a9.656 9.656 0 01-4.4 7.57l-37.86 21.71a9.832 9.832 0 01-8.81 0l-37.85-21.71a9.682 9.682 0 01-4.4-7.57v-43.43a9.707 9.707 0 014.4-7.57l37.86-21.71a9.814 9.814 0 018.8 0l37.86 21.71z"/></g><g style="mix-blend-mode:overlay"><path d="M790.08 515.85a9.84 9.84 0 018.8 0l37.87 21.72a9.682 9.682 0 014.4 7.57v43.43a9.723 9.723 0 01-4.41 7.57l-37.85 21.71a9.811 9.811 0 01-8.8 0l-37.86-21.71a9.707 9.707 0 01-4.4-7.57v-43.43a9.719 9.719 0 014.4-7.58l37.85-21.71z"/><path d="M790.08 515.85a9.84 9.84 0 018.8 0l37.87 21.72a9.682 9.682 0 014.4 7.57v43.43a9.723 9.723 0 01-4.41 7.57l-37.85 21.71a9.811 9.811 0 01-8.8 0l-37.86-21.71a9.707 9.707 0 01-4.4-7.57v-43.43a9.719 9.719 0 014.4-7.58l37.85-21.71z"/></g><g style="mix-blend-mode:overlay"><path d="M690.43 344.38a9.811 9.811 0 018.8 0l37.86 21.71a9.707 9.707 0 014.4 7.57v43.43a9.662 9.662 0 01-4.41 7.57l-37.85 21.71a9.814 9.814 0 01-8.8 0l-37.86-21.71a9.682 9.682 0 01-4.4-7.57v-43.43a9.7 9.7 0 014.4-7.57l37.86-21.71z"/><path d="M690.43 344.38a9.811 9.811 0 018.8 0l37.86 21.71a9.707 9.707 0 014.4 7.57v43.43a9.662 9.662 0 01-4.41 7.57l-37.85 21.71a9.814 9.814 0 01-8.8 0l-37.86-21.71a9.682 9.682 0 01-4.4-7.57v-43.43a9.7 9.7 0 014.4-7.57l37.86-21.71z"/></g><g style="mix-blend-mode:overlay"><path d="M492.34 502.82a9.685 9.685 0 01-4.4 7.57l-37.86 21.72a9.835 9.835 0 01-8.81 0l-37.85-21.72a9.682 9.682 0 01-4.4-7.57V459.4a9.656 9.656 0 014.4-7.57l37.85-21.72a9.888 9.888 0 018.81 0l37.87 21.72a9.656 9.656 0 014.4 7.57l-.01 43.42z"/><path d="M492.34 502.82a9.685 9.685 0 01-4.4 7.57l-37.86 21.72a9.835 9.835 0 01-8.81 0l-37.85-21.72a9.682 9.682 0 01-4.4-7.57V459.4a9.656 9.656 0 014.4-7.57l37.85-21.72a9.888 9.888 0 018.81 0l37.87 21.72a9.656 9.656 0 014.4 7.57l-.01 43.42z"/></g><g style="mix-blend-mode:overlay"><path d="M392.68 502.83a9.628 9.628 0 01-4.41 7.56l-37.85 21.72a9.814 9.814 0 01-8.8 0l-37.86-21.71a9.682 9.682 0 01-4.4-7.57V459.4a9.698 9.698 0 014.4-7.57l37.86-21.71a9.811 9.811 0 018.8 0l37.85 21.71a9.665 9.665 0 013.11 3.258 9.665 9.665 0 011.3 4.312v43.43z"/><path d="M392.68 502.83a9.628 9.628 0 01-4.41 7.56l-37.85 21.72a9.814 9.814 0 01-8.8 0l-37.86-21.71a9.682 9.682 0 01-4.4-7.57V459.4a9.698 9.698 0 014.4-7.57l37.86-21.71a9.811 9.811 0 018.8 0l37.85 21.71a9.665 9.665 0 013.11 3.258 9.665 9.665 0 011.3 4.312v43.43z"/></g><g style="mix-blend-mode:overlay"><path d="M438.11 537.56a9.715 9.715 0 014.4 7.58v43.43a9.698 9.698 0 01-4.4 7.57l-37.86 21.71a9.814 9.814 0 01-8.8 0l-37.86-21.71a9.698 9.698 0 01-4.4-7.57v-43.43a9.707 9.707 0 014.4-7.57l37.86-21.72a9.84 9.84 0 018.8 0l37.86 21.71z"/><path d="M438.11 537.56a9.715 9.715 0 014.4 7.58v43.43a9.698 9.698 0 01-4.4 7.57l-37.86 21.71a9.814 9.814 0 01-8.8 0l-37.86-21.71a9.698 9.698 0 01-4.4-7.57v-43.43a9.707 9.707 0 014.4-7.57l37.86-21.72a9.84 9.84 0 018.8 0l37.86 21.71z"/></g><g style="mix-blend-mode:overlay"><path d="M537.76 366.09a9.698 9.698 0 014.4 7.57v43.43a9.656 9.656 0 01-4.4 7.57l-37.81 21.71a9.835 9.835 0 01-8.81 0l-37.89-21.71a9.682 9.682 0 01-4.4-7.57v-43.43a9.698 9.698 0 014.4-7.57l37.86-21.71a9.811 9.811 0 018.8 0l37.85 21.71z"/><path d="M537.76 366.09a9.698 9.698 0 014.4 7.57v43.43a9.656 9.656 0 01-4.4 7.57l-37.81 21.71a9.835 9.835 0 01-8.81 0l-37.89-21.71a9.682 9.682 0 01-4.4-7.57v-43.43a9.698 9.698 0 014.4-7.57l37.86-21.71a9.811 9.811 0 018.8 0l37.85 21.71z"/></g><g style="mix-blend-mode:overlay"><path d="M491.1 515.85a9.862 9.862 0 018.81 0l37.86 21.72a9.682 9.682 0 014.4 7.57v43.43a9.723 9.723 0 01-4.41 7.57l-37.81 21.71a9.814 9.814 0 01-8.8 0l-37.9-21.71a9.707 9.707 0 01-4.4-7.57v-43.43a9.719 9.719 0 014.4-7.58l37.85-21.71z"/><path d="M491.1 515.85a9.862 9.862 0 018.81 0l37.86 21.72a9.682 9.682 0 014.4 7.57v43.43a9.723 9.723 0 01-4.41 7.57l-37.81 21.71a9.814 9.814 0 01-8.8 0l-37.9-21.71a9.707 9.707 0 01-4.4-7.57v-43.43a9.719 9.719 0 014.4-7.58l37.85-21.71z"/></g><g style="mix-blend-mode:overlay"><path d="M391.45 344.38a9.793 9.793 0 018.79 0l37.87 21.71a9.698 9.698 0 014.4 7.57v43.43a9.685 9.685 0 01-4.4 7.57l-37.86 21.71a9.814 9.814 0 01-8.8 0l-37.86-21.71a9.682 9.682 0 01-4.4-7.57v-43.43a9.698 9.698 0 014.4-7.57l37.86-21.71z"/><path d="M391.45 344.38a9.793 9.793 0 018.79 0l37.87 21.71a9.698 9.698 0 014.4 7.57v43.43a9.685 9.685 0 01-4.4 7.57l-37.86 21.71a9.814 9.814 0 01-8.8 0l-37.86-21.71a9.682 9.682 0 01-4.4-7.57v-43.43a9.698 9.698 0 014.4-7.57l37.86-21.71z"/></g><g style="mix-blend-mode:overlay"><path d="M391.45 172.9a9.793 9.793 0 018.79 0l37.87 21.72a9.656 9.656 0 014.4 7.57v43.42a9.705 9.705 0 01-4.4 7.58l-37.86 21.71a9.84 9.84 0 01-8.8 0l-37.86-21.72a9.666 9.666 0 01-4.4-7.57v-43.43a9.698 9.698 0 014.4-7.57l37.86-21.71z"/><path d="M391.45 172.9a9.793 9.793 0 018.79 0l37.87 21.72a9.656 9.656 0 014.4 7.57v43.42a9.705 9.705 0 01-4.4 7.58l-37.86 21.71a9.84 9.84 0 01-8.8 0l-37.86-21.72a9.666 9.666 0 01-4.4-7.57v-43.43a9.698 9.698 0 014.4-7.57l37.86-21.71z"/></g><g style="mix-blend-mode:overlay"><path d="M637.42 537.56a9.69 9.69 0 014.4 7.58v43.43a9.673 9.673 0 01-4.41 7.57l-37.85 21.71a9.835 9.835 0 01-8.81 0l-37.8-21.71a9.698 9.698 0 01-4.4-7.57v-43.43a9.707 9.707 0 014.4-7.57l37.86-21.72a9.84 9.84 0 018.8 0l37.81 21.71z"/><path d="M637.42 537.56a9.69 9.69 0 014.4 7.58v43.43a9.673 9.673 0 01-4.41 7.57l-37.85 21.71a9.835 9.835 0 01-8.81 0l-37.8-21.71a9.698 9.698 0 01-4.4-7.57v-43.43a9.707 9.707 0 014.4-7.57l37.86-21.72a9.84 9.84 0 018.8 0l37.81 21.71z"/></g><g style="mix-blend-mode:overlay"><path d="M338.45 537.56a9.715 9.715 0 014.4 7.58v43.43a9.698 9.698 0 01-4.4 7.57l-37.86 21.71a9.814 9.814 0 01-8.8 0l-37.84-21.71a9.724 9.724 0 01-4.4-7.57v-43.43a9.707 9.707 0 014.4-7.57l37.86-21.72a9.84 9.84 0 018.8 0l37.84 21.71z"/><path d="M338.45 537.56a9.715 9.715 0 014.4 7.58v43.43a9.698 9.698 0 01-4.4 7.57l-37.86 21.71a9.814 9.814 0 01-8.8 0l-37.84-21.71a9.724 9.724 0 01-4.4-7.57v-43.43a9.707 9.707 0 014.4-7.57l37.86-21.72a9.84 9.84 0 018.8 0l37.84 21.71z"/></g><g style="mix-blend-mode:overlay"><path d="M338.45 366.09a9.682 9.682 0 014.4 7.57v43.43a9.656 9.656 0 01-4.4 7.57l-37.86 21.71a9.814 9.814 0 01-8.8 0l-37.84-21.71a9.717 9.717 0 01-4.4-7.57v-43.43a9.698 9.698 0 014.4-7.57l37.86-21.71a9.811 9.811 0 018.8 0l37.84 21.71z"/><path d="M338.45 366.09a9.682 9.682 0 014.4 7.57v43.43a9.656 9.656 0 01-4.4 7.57l-37.86 21.71a9.814 9.814 0 01-8.8 0l-37.84-21.71a9.717 9.717 0 01-4.4-7.57v-43.43a9.698 9.698 0 014.4-7.57l37.86-21.71a9.811 9.811 0 018.8 0l37.84 21.71z"/></g><g style="mix-blend-mode:overlay"><path d="M238.79 537.56a9.715 9.715 0 014.4 7.58v43.43a9.698 9.698 0 01-4.4 7.57l-37.84 21.71a9.814 9.814 0 01-8.8 0l-37.87-21.71a9.706 9.706 0 01-4.41-7.57v-43.43a9.707 9.707 0 014.4-7.57l37.86-21.72a9.84 9.84 0 018.8 0l37.86 21.71z"/><path d="M238.79 537.56a9.715 9.715 0 014.4 7.58v43.43a9.698 9.698 0 01-4.4 7.57l-37.84 21.71a9.814 9.814 0 01-8.8 0l-37.87-21.71a9.706 9.706 0 01-4.41-7.57v-43.43a9.707 9.707 0 014.4-7.57l37.86-21.72a9.84 9.84 0 018.8 0l37.86 21.71z"/></g><g style="mix-blend-mode:overlay"><path d="M139.13 537.56a9.715 9.715 0 014.4 7.58v43.43a9.707 9.707 0 01-4.4 7.57l-37.85 21.71a9.835 9.835 0 01-8.81 0l-37.85-21.71a9.703 9.703 0 01-4.4-7.57v-43.43a9.675 9.675 0 014.4-7.57l37.85-21.72a9.861 9.861 0 018.81 0l37.85 21.71z"/><path d="M139.13 537.56a9.715 9.715 0 014.4 7.58v43.43a9.707 9.707 0 01-4.4 7.57l-37.85 21.71a9.835 9.835 0 01-8.81 0l-37.85-21.71a9.703 9.703 0 01-4.4-7.57v-43.43a9.675 9.675 0 014.4-7.57l37.85-21.72a9.861 9.861 0 018.81 0l37.85 21.71z"/></g><g style="mix-blend-mode:overlay"><path d="M139.13 366.09a9.698 9.698 0 014.4 7.57v43.43a9.705 9.705 0 01-4.4 7.58l-37.85 21.7a9.835 9.835 0 01-8.81 0l-37.85-21.71a9.654 9.654 0 01-4.4-7.57v-43.42a9.633 9.633 0 014.4-7.57l37.85-21.72a9.835 9.835 0 018.81 0l37.85 21.71z"/><path d="M139.13 366.09a9.698 9.698 0 014.4 7.57v43.43a9.705 9.705 0 01-4.4 7.58l-37.85 21.7a9.835 9.835 0 01-8.81 0l-37.85-21.71a9.654 9.654 0 01-4.4-7.57v-43.42a9.633 9.633 0 014.4-7.57l37.85-21.72a9.835 9.835 0 018.81 0l37.85 21.71z"/></g><path d="M288.61 451.83a9.656 9.656 0 014.4 7.57v43.43a9.685 9.685 0 01-4.4 7.57l-37.85 21.71a9.835 9.835 0 01-8.81 0L204.1 510.4a9.682 9.682 0 01-4.4-7.57V459.4c0-2.78-1.105-6.17 1.295-7.57l40.955-21.72a9.888 9.888 0 018.81 0l37.85 21.72z"/><g style="mix-blend-mode:overlay"><path d="M188.95 451.83a9.656 9.656 0 014.4 7.57v43.43a9.685 9.685 0 01-4.4 7.57l-37.86 21.71a9.811 9.811 0 01-8.8 0l-37.85-21.71a9.69 9.69 0 01-4.41-7.57V459.4a9.685 9.685 0 014.4-7.57l37.86-21.72a9.867 9.867 0 018.8 0l37.86 21.72z"/><path d="M188.95 451.83a9.656 9.656 0 014.4 7.57v43.43a9.685 9.685 0 01-4.4 7.57l-37.86 21.71a9.811 9.811 0 01-8.8 0l-37.85-21.71a9.69 9.69 0 01-4.41-7.57V459.4a9.685 9.685 0 014.4-7.57l37.86-21.72a9.867 9.867 0 018.8 0l37.86 21.72zm48.97-86.075a9.656 9.656 0 014.4 7.57v43.43a9.685 9.685 0 01-4.4 7.57l-37.86 21.71a9.814 9.814 0 01-8.8 0l-37.85-21.71a9.69 9.69 0 01-4.41-7.57v-43.43a9.685 9.685 0 014.4-7.57l37.86-21.72a9.867 9.867 0 018.8 0l37.86 21.72z"/></g><g style="mix-blend-mode:overlay"><path d="M89.29 451.83a9.654 9.654 0 014.4 7.57v43.43a9.678 9.678 0 01-4.4 7.57l-37.86 21.71a9.813 9.813 0 01-8.8 0L4.78 510.4a9.693 9.693 0 01-4.41-7.57V459.4a9.663 9.663 0 014.41-7.57l37.85-21.72a9.866 9.866 0 018.8 0l37.86 21.72z"/><path d="M89.29 451.83a9.654 9.654 0 014.4 7.57v43.43a9.678 9.678 0 01-4.4 7.57l-37.86 21.71a9.813 9.813 0 01-8.8 0L4.78 510.4a9.693 9.693 0 01-4.41-7.57V459.4a9.663 9.663 0 014.41-7.57l37.85-21.72a9.866 9.866 0 018.8 0l37.86 21.72z"/></g><g style="mix-blend-mode:overlay"><path d="M841.14 245.6a9.706 9.706 0 01-4.39 7.58l-37.87 21.71a9.811 9.811 0 01-8.8 0l-37.85-21.71a9.7 9.7 0 01-4.4-7.58v-43.42a9.707 9.707 0 014.4-7.57l37.85-21.71a9.814 9.814 0 018.8 0l37.87 21.71a9.71 9.71 0 014.39 7.57v43.42z"/><path d="M841.14 245.6a9.706 9.706 0 01-4.39 7.58l-37.87 21.71a9.811 9.811 0 01-8.8 0l-37.85-21.71a9.7 9.7 0 01-4.4-7.58v-43.42a9.707 9.707 0 014.4-7.57l37.85-21.71a9.814 9.814 0 018.8 0l37.87 21.71a9.71 9.71 0 014.39 7.57v43.42z"/></g><g style="mix-blend-mode:overlay"><path d="M741.49 245.61a9.685 9.685 0 01-4.4 7.57l-37.86 21.72a9.814 9.814 0 01-8.8 0l-37.86-21.72a9.682 9.682 0 01-4.4-7.57v-43.42a9.656 9.656 0 014.4-7.57l37.86-21.72a9.811 9.811 0 018.8 0l37.86 21.72a9.656 9.656 0 014.4 7.57v43.42z"/><path d="M741.49 245.61a9.685 9.685 0 01-4.4 7.57l-37.86 21.72a9.814 9.814 0 01-8.8 0l-37.86-21.72a9.682 9.682 0 01-4.4-7.57v-43.42a9.656 9.656 0 014.4-7.57l37.86-21.72a9.811 9.811 0 018.8 0l37.86 21.72a9.656 9.656 0 014.4 7.57v43.42z"/></g><g style="mix-blend-mode:overlay"><path d="M786.95 280.35a9.655 9.655 0 014.4 7.57v43.43a9.656 9.656 0 01-4.4 7.57l-37.86 21.71a9.835 9.835 0 01-8.81 0l-37.85-21.71a9.656 9.656 0 01-4.4-7.57v-43.43a9.707 9.707 0 014.4-7.57l37.86-21.71a9.814 9.814 0 018.8 0l37.86 21.71z"/><path d="M786.95 280.35a9.655 9.655 0 014.4 7.57v43.43a9.656 9.656 0 01-4.4 7.57l-37.86 21.71a9.835 9.835 0 01-8.81 0l-37.85-21.71a9.656 9.656 0 01-4.4-7.57v-43.43a9.707 9.707 0 014.4-7.57l37.86-21.71a9.814 9.814 0 018.8 0l37.86 21.71z"/></g><g style="mix-blend-mode:overlay"><path d="M786.95 108.87a9.679 9.679 0 014.4 7.57v43.43a9.656 9.656 0 01-4.4 7.57l-37.86 21.72a9.862 9.862 0 01-8.81 0l-37.88-21.72a9.656 9.656 0 01-4.4-7.57v-43.43a9.698 9.698 0 014.4-7.57l37.86-21.71a9.812 9.812 0 018.8 0l37.89 21.71z"/><path d="M786.95 108.87a9.679 9.679 0 014.4 7.57v43.43a9.656 9.656 0 01-4.4 7.57l-37.86 21.72a9.862 9.862 0 01-8.81 0l-37.88-21.72a9.656 9.656 0 01-4.4-7.57v-43.43a9.698 9.698 0 014.4-7.57l37.86-21.71a9.812 9.812 0 018.8 0l37.89 21.71z"/></g><g style="mix-blend-mode:overlay"><path d="M886.57 108.87a9.706 9.706 0 014.38 7.57v43.43a9.656 9.656 0 01-4.4 7.57l-37.86 21.72a9.796 9.796 0 01-8.81 0l-37.82-21.72a9.656 9.656 0 01-4.4-7.57v-43.42a9.705 9.705 0 014.4-7.58l37.89-21.71a9.812 9.812 0 018.8 0l37.82 21.71z"/><path d="M886.57 108.87a9.706 9.706 0 014.38 7.57v43.43a9.656 9.656 0 01-4.4 7.57l-37.86 21.72a9.796 9.796 0 01-8.81 0l-37.82-21.72a9.656 9.656 0 01-4.4-7.57v-43.42a9.705 9.705 0 014.4-7.58l37.89-21.71a9.812 9.812 0 018.8 0l37.82 21.71z"/></g><g style="mix-blend-mode:overlay"><path d="M491.1 172.9a9.835 9.835 0 018.81 0l37.86 21.72a9.656 9.656 0 014.4 7.57v43.42a9.733 9.733 0 01-4.41 7.58l-37.81 21.71a9.84 9.84 0 01-8.8 0l-37.9-21.72a9.656 9.656 0 01-4.4-7.57v-43.42a9.7 9.7 0 014.4-7.58l37.85-21.71z"/><path d="M491.1 172.9a9.835 9.835 0 018.81 0l37.86 21.72a9.656 9.656 0 014.4 7.57v43.42a9.733 9.733 0 01-4.41 7.58l-37.81 21.71a9.84 9.84 0 01-8.8 0l-37.9-21.72a9.656 9.656 0 01-4.4-7.57v-43.42a9.7 9.7 0 014.4-7.58l37.85-21.71z"/></g><g style="mix-blend-mode:overlay"><path d="M592 331.34a9.683 9.683 0 01-4.41 7.57l-37.85 21.72a9.835 9.835 0 01-8.81 0l-37.85-21.71a9.715 9.715 0 01-4.4-7.58v-43.42a9.685 9.685 0 014.4-7.57l37.87-21.71a9.835 9.835 0 018.81 0l37.85 21.71a9.69 9.69 0 014.41 7.57l-.02 43.42z"/><path d="M592 331.34a9.683 9.683 0 01-4.41 7.57l-37.85 21.72a9.835 9.835 0 01-8.81 0l-37.85-21.71a9.715 9.715 0 01-4.4-7.58v-43.42a9.685 9.685 0 014.4-7.57l37.87-21.71a9.835 9.835 0 018.81 0l37.85 21.71a9.69 9.69 0 014.41 7.57l-.02 43.42z"/></g><g style="mix-blend-mode:overlay"><path d="M592 502.83a9.683 9.683 0 01-4.41 7.57l-37.85 21.71a9.835 9.835 0 01-8.81 0l-37.85-21.71a9.682 9.682 0 01-4.4-7.57V459.4a9.698 9.698 0 014.4-7.57l37.87-21.71a9.822 9.822 0 018.81 0l37.85 21.71a9.706 9.706 0 014.41 7.57l-.02 43.43z"/><path d="M592 502.83a9.683 9.683 0 01-4.41 7.57l-37.85 21.71a9.835 9.835 0 01-8.81 0l-37.85-21.71a9.682 9.682 0 01-4.4-7.57V459.4a9.698 9.698 0 014.4-7.57l37.87-21.71a9.822 9.822 0 018.81 0l37.85 21.71a9.706 9.706 0 014.41 7.57l-.02 43.43z"/></g><g style="mix-blend-mode:overlay"><path d="M492.34 331.35a9.685 9.685 0 01-4.4 7.57l-37.86 21.71a9.835 9.835 0 01-8.81 0l-37.85-21.71a9.682 9.682 0 01-4.4-7.57v-43.42a9.7 9.7 0 014.4-7.58l37.85-21.71a9.835 9.835 0 018.81 0l37.87 21.71a9.69 9.69 0 014.4 7.58l-.01 43.42z"/><path d="M492.34 331.35a9.685 9.685 0 01-4.4 7.57l-37.86 21.71a9.835 9.835 0 01-8.81 0l-37.85-21.71a9.682 9.682 0 01-4.4-7.57v-43.42a9.7 9.7 0 014.4-7.58l37.85-21.71a9.835 9.835 0 018.81 0l37.87 21.71a9.69 9.69 0 014.4 7.58l-.01 43.42z"/></g><g style="mix-blend-mode:overlay"><path d="M691.66 331.35a9.683 9.683 0 01-4.41 7.57l-37.85 21.71a9.835 9.835 0 01-8.81 0l-37.85-21.71a9.682 9.682 0 01-4.4-7.57v-43.42a9.7 9.7 0 014.4-7.58l37.85-21.71a9.835 9.835 0 018.81 0l37.85 21.71a9.709 9.709 0 014.41 7.58v43.42z"/><path d="M691.66 331.35a9.683 9.683 0 01-4.41 7.57l-37.85 21.71a9.835 9.835 0 01-8.81 0l-37.85-21.71a9.682 9.682 0 01-4.4-7.57v-43.42a9.7 9.7 0 014.4-7.58l37.85-21.71a9.835 9.835 0 018.81 0l37.85 21.71a9.709 9.709 0 014.41 7.58v43.42z"/></g><g style="mix-blend-mode:overlay"><path d="M637.42 194.61a9.679 9.679 0 014.4 7.57v43.43a9.686 9.686 0 01-4.41 7.58l-37.85 21.71a9.862 9.862 0 01-8.81 0l-37.8-21.71a9.69 9.69 0 01-4.4-7.58v-43.42a9.656 9.656 0 014.4-7.57l37.86-21.72a9.811 9.811 0 018.8 0l37.81 21.71z"/><path d="M637.42 194.61a9.679 9.679 0 014.4 7.57v43.43a9.686 9.686 0 01-4.41 7.58l-37.85 21.71a9.862 9.862 0 01-8.81 0l-37.8-21.71a9.69 9.69 0 01-4.4-7.58v-43.42a9.656 9.656 0 014.4-7.57l37.86-21.72a9.811 9.811 0 018.8 0l37.81 21.71z"/></g><g style="mix-blend-mode:overlay"><path d="M590.76 344.38a9.811 9.811 0 018.8 0l37.87 21.71a9.698 9.698 0 014.4 7.57v43.43a9.683 9.683 0 01-4.41 7.57l-37.85 21.71a9.814 9.814 0 01-8.8 0l-37.82-21.71a9.707 9.707 0 01-4.4-7.57v-43.43a9.698 9.698 0 014.4-7.57l37.81-21.71z"/><path d="M590.76 344.38a9.811 9.811 0 018.8 0l37.87 21.71a9.698 9.698 0 014.4 7.57v43.43a9.683 9.683 0 01-4.41 7.57l-37.85 21.71a9.814 9.814 0 01-8.8 0l-37.82-21.71a9.707 9.707 0 01-4.4-7.57v-43.43a9.698 9.698 0 014.4-7.57l37.81-21.71z"/></g><g style="mix-blend-mode:overlay"><path d="M640.6 87.16a9.812 9.812 0 018.8 0l37.86 21.71a9.69 9.69 0 014.4 7.58v43.42a9.656 9.656 0 01-4.41 7.57l-37.85 21.72a9.811 9.811 0 01-8.8 0l-37.85-21.72a9.652 9.652 0 01-4.41-7.57v-43.43a9.665 9.665 0 011.3-4.312 9.665 9.665 0 013.11-3.258l37.85-21.71z"/><path d="M640.6 87.16a9.812 9.812 0 018.8 0l37.86 21.71a9.69 9.69 0 014.4 7.58v43.42a9.656 9.656 0 01-4.41 7.57l-37.85 21.72a9.811 9.811 0 01-8.8 0l-37.85-21.72a9.652 9.652 0 01-4.41-7.57v-43.43a9.665 9.665 0 011.3-4.312 9.665 9.665 0 013.11-3.258l37.85-21.71z"/></g><g style="mix-blend-mode:overlay"><path d="M841.15 74.13a9.686 9.686 0 01-4.4 7.57l-37.86 21.72a9.835 9.835 0 01-8.81 0l-37.85-21.71a9.72 9.72 0 01-4.4-7.58V30.71a9.663 9.663 0 014.4-7.57l37.85-21.72a9.89 9.89 0 018.81 0l37.86 21.72a9.662 9.662 0 014.4 7.57v43.42z"/><path d="M841.15 74.13a9.686 9.686 0 01-4.4 7.57l-37.86 21.72a9.835 9.835 0 01-8.81 0l-37.85-21.71a9.72 9.72 0 01-4.4-7.58V30.71a9.663 9.663 0 014.4-7.57l37.85-21.72a9.89 9.89 0 018.81 0l37.86 21.72a9.662 9.662 0 014.4 7.57v43.42z"/></g><g style="mix-blend-mode:overlay"><path d="M737.09 23.13a9.71 9.71 0 014.4 7.57v43.44a9.71 9.71 0 01-4.4 7.57l-37.86 21.71a9.84 9.84 0 01-8.8 0l-37.86-21.7a9.73 9.73 0 01-4.4-7.58V30.71a9.65 9.65 0 014.4-7.57l37.86-21.72a9.808 9.808 0 018.8 0l37.86 21.71z"/><path d="M737.09 23.13a9.71 9.71 0 014.4 7.57v43.44a9.71 9.71 0 01-4.4 7.57l-37.86 21.71a9.84 9.84 0 01-8.8 0l-37.86-21.7a9.73 9.73 0 01-4.4-7.58V30.71a9.65 9.65 0 014.4-7.57l37.86-21.72a9.808 9.808 0 018.8 0l37.86 21.71z"/></g><g style="mix-blend-mode:overlay"><path d="M542.17 74.12a9.704 9.704 0 01-4.4 7.58l-37.82 21.71a9.814 9.814 0 01-8.8 0l-37.9-21.71a9.694 9.694 0 01-4.4-7.58V30.71a9.705 9.705 0 014.4-7.58l37.86-21.71a9.808 9.808 0 018.8 0l37.86 21.71a9.696 9.696 0 014.4 7.58v43.41z"/><path d="M542.17 74.12a9.704 9.704 0 01-4.4 7.58l-37.82 21.71a9.814 9.814 0 01-8.8 0l-37.9-21.71a9.694 9.694 0 01-4.4-7.58V30.71a9.705 9.705 0 014.4-7.58l37.86-21.71a9.808 9.808 0 018.8 0l37.86 21.71a9.696 9.696 0 014.4 7.58v43.41z"/></g><g style="mix-blend-mode:overlay"><path d="M641.83 74.13a9.686 9.686 0 01-4.4 7.57l-37.86 21.72a9.835 9.835 0 01-8.81 0l-37.81-21.71a9.71 9.71 0 01-4.4-7.58V30.71a9.65 9.65 0 014.4-7.57L590.8 1.42a9.89 9.89 0 018.81 0l37.82 21.72a9.662 9.662 0 014.4 7.57v43.42z"/><path d="M641.83 74.13a9.686 9.686 0 01-4.4 7.57l-37.86 21.72a9.835 9.835 0 01-8.81 0l-37.81-21.71a9.71 9.71 0 01-4.4-7.58V30.71a9.65 9.65 0 014.4-7.57L590.8 1.42a9.89 9.89 0 018.81 0l37.82 21.72a9.662 9.662 0 014.4 7.57v43.42z"/></g><g style="mix-blend-mode:overlay"><path d="M238.78 23.13a9.703 9.703 0 014.4 7.57v43.43a9.686 9.686 0 01-4.41 7.58l-37.82 21.71a9.862 9.862 0 01-8.81 0L154.27 81.7a9.661 9.661 0 01-4.4-7.57V30.71a9.705 9.705 0 014.4-7.58l37.86-21.71a9.81 9.81 0 018.8 0l37.85 21.71z"/><path d="M238.78 23.13a9.703 9.703 0 014.4 7.57v43.43a9.686 9.686 0 01-4.41 7.58l-37.82 21.71a9.862 9.862 0 01-8.81 0L154.27 81.7a9.661 9.661 0 01-4.4-7.57V30.71a9.705 9.705 0 014.4-7.58l37.86-21.71a9.81 9.81 0 018.8 0l37.85 21.71z"/></g><g style="mix-blend-mode:overlay"><path d="M540.95 87.16a9.812 9.812 0 018.8 0l37.86 21.71a9.69 9.69 0 014.4 7.58v43.42a9.656 9.656 0 01-4.41 7.57l-37.85 21.72a9.811 9.811 0 01-8.8 0l-37.87-21.72a9.656 9.656 0 01-4.4-7.57v-43.43a9.698 9.698 0 014.4-7.57l37.87-21.71z"/><path d="M540.95 87.16a9.812 9.812 0 018.8 0l37.86 21.71a9.69 9.69 0 014.4 7.58v43.42a9.656 9.656 0 01-4.41 7.57l-37.85 21.72a9.811 9.811 0 01-8.8 0l-37.87-21.72a9.656 9.656 0 01-4.4-7.57v-43.43a9.698 9.698 0 014.4-7.57l37.87-21.71z"/></g><g style="mix-blend-mode:overlay"><path d="M442.51 74.13a9.686 9.686 0 01-4.4 7.57l-37.86 21.72a9.867 9.867 0 01-8.8 0l-37.86-21.71a9.71 9.71 0 01-4.4-7.58V30.71a9.65 9.65 0 014.4-7.57l37.86-21.72a9.81 9.81 0 018.8 0l37.86 21.72a9.662 9.662 0 014.4 7.57v43.42z"/><path d="M442.51 74.13a9.686 9.686 0 01-4.4 7.57l-37.86 21.72a9.867 9.867 0 01-8.8 0l-37.86-21.71a9.71 9.71 0 01-4.4-7.58V30.71a9.65 9.65 0 014.4-7.57l37.86-21.72a9.81 9.81 0 018.8 0l37.86 21.72a9.662 9.662 0 014.4 7.57v43.42z"/></g><g style="mix-blend-mode:overlay"><path d="M487.95 108.87a9.686 9.686 0 014.39 7.57v43.43a9.656 9.656 0 01-4.4 7.57l-37.86 21.72a9.835 9.835 0 01-8.81 0l-37.85-21.72a9.656 9.656 0 01-4.4-7.57v-43.42a9.705 9.705 0 014.4-7.58l37.86-21.71a9.812 9.812 0 018.8 0l37.87 21.71z"/><path d="M487.95 108.87a9.686 9.686 0 014.39 7.57v43.43a9.656 9.656 0 01-4.4 7.57l-37.86 21.72a9.835 9.835 0 01-8.81 0l-37.85-21.72a9.656 9.656 0 01-4.4-7.57v-43.42a9.705 9.705 0 014.4-7.58l37.86-21.71a9.812 9.812 0 018.8 0l37.87 21.71z"/></g><g style="mix-blend-mode:overlay"><path d="M293.02 159.86a9.695 9.695 0 01-4.4 7.57l-37.86 21.72a9.811 9.811 0 01-8.8 0l-37.86-21.71a9.69 9.69 0 01-4.4-7.58v-43.42a9.698 9.698 0 014.4-7.57l37.85-21.71a9.812 9.812 0 018.8 0l37.87 21.71a9.716 9.716 0 014.4 7.57v43.42z"/><path d="M293.02 159.86a9.695 9.695 0 01-4.4 7.57l-37.86 21.72a9.811 9.811 0 01-8.8 0l-37.86-21.71a9.69 9.69 0 01-4.4-7.58v-43.42a9.698 9.698 0 014.4-7.57l37.85-21.71a9.812 9.812 0 018.8 0l37.87 21.71a9.716 9.716 0 014.4 7.57v43.42z"/></g><g style="mix-blend-mode:overlay"><path d="M392.68 159.87a9.662 9.662 0 01-4.41 7.57l-37.85 21.72a9.814 9.814 0 01-8.8 0l-37.86-21.72a9.682 9.682 0 01-4.4-7.57v-43.42a9.705 9.705 0 014.4-7.58l37.86-21.71a9.809 9.809 0 018.8 0l37.85 21.71a9.686 9.686 0 014.41 7.58v43.42z"/><path d="M392.68 159.87a9.662 9.662 0 01-4.41 7.57l-37.85 21.72a9.814 9.814 0 01-8.8 0l-37.86-21.72a9.682 9.682 0 01-4.4-7.57v-43.42a9.705 9.705 0 014.4-7.58l37.86-21.71a9.809 9.809 0 018.8 0l37.85 21.71a9.686 9.686 0 014.41 7.58v43.42z"/></g><g style="mix-blend-mode:overlay"><path d="M338.44 23.13a9.708 9.708 0 014.41 7.57v43.44a9.71 9.71 0 01-4.4 7.57l-37.86 21.71a9.862 9.862 0 01-8.81 0l-37.83-21.71a9.694 9.694 0 01-4.4-7.58V30.71a9.65 9.65 0 014.4-7.57l37.84-21.72a9.808 9.808 0 018.8 0l37.85 21.71z"/><path d="M338.44 23.13a9.708 9.708 0 014.41 7.57v43.44a9.71 9.71 0 01-4.4 7.57l-37.86 21.71a9.862 9.862 0 01-8.81 0l-37.83-21.71a9.694 9.694 0 01-4.4-7.58V30.71a9.65 9.65 0 014.4-7.57l37.84-21.72a9.808 9.808 0 018.8 0l37.85 21.71z"/></g><g style="mix-blend-mode:overlay"><path d="M291.78 172.9a9.835 9.835 0 018.81 0l37.86 21.71a9.69 9.69 0 014.4 7.58v43.42a9.675 9.675 0 01-4.41 7.57l-37.85 21.71a9.814 9.814 0 01-8.8 0l-37.84-21.71a9.656 9.656 0 01-4.4-7.57v-43.43a9.698 9.698 0 014.4-7.57l37.83-21.71z"/><path d="M291.78 172.9a9.835 9.835 0 018.81 0l37.86 21.71a9.69 9.69 0 014.4 7.58v43.42a9.675 9.675 0 01-4.41 7.57l-37.85 21.71a9.814 9.814 0 01-8.8 0l-37.84-21.71a9.656 9.656 0 01-4.4-7.57v-43.43a9.698 9.698 0 014.4-7.57l37.83-21.71z"/></g><g style="mix-blend-mode:overlay"><path d="M92.46 172.9a9.835 9.835 0 018.81 0l37.85 21.71a9.686 9.686 0 014.41 7.58v43.42a9.656 9.656 0 01-4.4 7.57l-37.85 21.71a9.813 9.813 0 01-8.8 0l-37.86-21.71a9.654 9.654 0 01-4.4-7.57v-43.43a9.699 9.699 0 014.4-7.57l37.84-21.71z"/><path d="M92.46 172.9a9.835 9.835 0 018.81 0l37.85 21.71a9.686 9.686 0 014.41 7.58v43.42a9.656 9.656 0 01-4.4 7.57l-37.85 21.71a9.813 9.813 0 01-8.8 0l-37.86-21.71a9.654 9.654 0 01-4.4-7.57v-43.43a9.699 9.699 0 014.4-7.57l37.84-21.71z"/></g><g style="mix-blend-mode:overlay"><path d="M143.52 74.13a9.686 9.686 0 01-4.4 7.57l-37.85 21.72a9.888 9.888 0 01-8.81 0L54.61 81.71a9.71 9.71 0 01-4.4-7.58V30.71a9.66 9.66 0 014.4-7.57L92.46 1.42a9.83 9.83 0 018.81 0l37.85 21.72a9.662 9.662 0 014.4 7.57v43.42z"/><path d="M143.52 74.13a9.686 9.686 0 01-4.4 7.57l-37.85 21.72a9.888 9.888 0 01-8.81 0L54.61 81.71a9.71 9.71 0 01-4.4-7.58V30.71a9.66 9.66 0 014.4-7.57L92.46 1.42a9.83 9.83 0 018.81 0l37.85 21.72a9.662 9.662 0 014.4 7.57v43.42z"/></g><g style="mix-blend-mode:overlay"><path d="M188.95 108.87a9.698 9.698 0 014.4 7.57v43.43a9.633 9.633 0 01-4.4 7.57l-37.86 21.72a9.814 9.814 0 01-8.8 0l-37.85-21.71a9.656 9.656 0 01-4.4-7.57v-43.43a9.705 9.705 0 014.4-7.58l37.86-21.71a9.809 9.809 0 018.8 0l37.85 21.71z"/><path d="M188.95 108.87a9.698 9.698 0 014.4 7.57v43.43a9.633 9.633 0 01-4.4 7.57l-37.86 21.72a9.814 9.814 0 01-8.8 0l-37.85-21.71a9.656 9.656 0 01-4.4-7.57v-43.43a9.705 9.705 0 014.4-7.58l37.86-21.71a9.809 9.809 0 018.8 0l37.85 21.71z"/></g><g style="mix-blend-mode:overlay"><path d="M93.7 331.34a9.675 9.675 0 01-4.41 7.57l-37.86 21.72a9.813 9.813 0 01-8.8 0L4.78 338.92a9.68 9.68 0 01-4.41-7.58v-43.42a9.663 9.663 0 014.41-7.57l37.85-21.71a9.813 9.813 0 018.8 0l37.86 21.71a9.693 9.693 0 014.41 7.57v43.42z"/><path d="M93.7 331.34a9.675 9.675 0 01-4.41 7.57l-37.86 21.72a9.813 9.813 0 01-8.8 0L4.78 338.92a9.68 9.68 0 01-4.41-7.58v-43.42a9.663 9.663 0 014.41-7.57l37.85-21.71a9.813 9.813 0 018.8 0l37.86 21.71a9.693 9.693 0 014.41 7.57v43.42z"/></g><g style="mix-blend-mode:overlay"><path d="M93.7 159.87a9.69 9.69 0 01-4.41 7.57l-37.86 21.72a9.813 9.813 0 01-8.8 0L4.78 167.44a9.664 9.664 0 01-4.41-7.57v-43.42a9.68 9.68 0 014.41-7.58l37.85-21.71a9.81 9.81 0 018.8 0l37.86 21.71a9.71 9.71 0 014.41 7.58v43.42z"/><path d="M93.7 159.87a9.69 9.69 0 01-4.41 7.57l-37.86 21.72a9.813 9.813 0 01-8.8 0L4.78 167.44a9.664 9.664 0 01-4.41-7.57v-43.42a9.68 9.68 0 014.41-7.58l37.85-21.71a9.81 9.81 0 018.8 0l37.86 21.71a9.71 9.71 0 014.41 7.58v43.42z"/></g><g style="mix-blend-mode:overlay"><path d="M388.27 280.35a9.655 9.655 0 014.4 7.57v43.43a9.656 9.656 0 01-4.41 7.57l-37.85 21.71a9.835 9.835 0 01-8.81 0l-37.84-21.71a9.656 9.656 0 01-4.4-7.57v-43.42a9.705 9.705 0 014.4-7.58l37.86-21.71a9.811 9.811 0 018.8 0l37.85 21.71z"/><path d="M388.27 280.35a9.655 9.655 0 014.4 7.57v43.43a9.656 9.656 0 01-4.41 7.57l-37.85 21.71a9.835 9.835 0 01-8.81 0l-37.84-21.71a9.656 9.656 0 01-4.4-7.57v-43.42a9.705 9.705 0 014.4-7.58l37.86-21.71a9.811 9.811 0 018.8 0l37.85 21.71z"/></g><g style="mix-blend-mode:overlay"><path d="M193.36 331.35a9.716 9.716 0 01-4.4 7.57l-37.87 21.71a9.814 9.814 0 01-8.8 0l-37.85-21.71a9.698 9.698 0 01-4.4-7.57v-43.43a9.685 9.685 0 014.4-7.57l37.85-21.71a9.811 9.811 0 018.8 0l37.86 21.71a9.717 9.717 0 014.4 7.57l.01 43.43z"/><path d="M193.36 331.35a9.716 9.716 0 01-4.4 7.57l-37.87 21.71a9.814 9.814 0 01-8.8 0l-37.85-21.71a9.698 9.698 0 01-4.4-7.57v-43.43a9.685 9.685 0 014.4-7.57l37.85-21.71a9.811 9.811 0 018.8 0l37.86 21.71a9.717 9.717 0 014.4 7.57l.01 43.43z"/></g><g style="mix-blend-mode:overlay"><path d="M293.01 331.35a9.685 9.685 0 01-4.4 7.57l-37.85 21.71a9.835 9.835 0 01-8.81 0l-37.85-21.71a9.682 9.682 0 01-4.4-7.57v-43.42a9.7 9.7 0 014.4-7.58l37.85-21.71a9.835 9.835 0 018.81 0l37.85 21.71a9.69 9.69 0 014.4 7.58v43.42z"/><path d="M293.01 331.35a9.685 9.685 0 01-4.4 7.57l-37.85 21.71a9.835 9.835 0 01-8.81 0l-37.85-21.71a9.682 9.682 0 01-4.4-7.57v-43.42a9.7 9.7 0 014.4-7.58l37.85-21.71a9.835 9.835 0 018.81 0l37.85 21.71a9.69 9.69 0 014.4 7.58v43.42z"/></g><g style="mix-blend-mode:overlay"><path d="M238.78 194.61a9.69 9.69 0 014.4 7.58v43.42a9.686 9.686 0 01-4.41 7.58l-37.82 21.71a9.835 9.835 0 01-8.81 0l-37.85-21.71a9.7 9.7 0 01-4.4-7.58v-43.42a9.656 9.656 0 014.4-7.57l37.86-21.72a9.84 9.84 0 018.8 0l37.83 21.71z"/><path d="M238.78 194.61a9.69 9.69 0 014.4 7.58v43.42a9.686 9.686 0 01-4.41 7.58l-37.82 21.71a9.835 9.835 0 01-8.81 0l-37.85-21.71a9.7 9.7 0 01-4.4-7.58v-43.42a9.656 9.656 0 014.4-7.57l37.86-21.72a9.84 9.84 0 018.8 0l37.83 21.71z"/></g></g><defs><clipPath id="clip0"><path fill="#fff" d="M0 0h1738.47v619.26H0z"/></clipPath></defs></svg>