<svg xmlns="http://www.w3.org/2000/svg" viewBox="0 0 44.95 45.12"><defs><style>.cls-1{fill:#fff}</style></defs><g id="Layer_2" data-name="Layer 2"><g id="Inicio_2" data-name="Inicio 2"><path class="cls-1" d="M21.54 0h2.73c.11 0 .21.06.31.07a22 22 0 0116 8.72 21.37 21.37 0 014.22 10.29c.06.51.13 1 .2 1.53v2.74a1.7 1.7 0 00-.06.31 22.35 22.35 0 01-1.41 6.19 21.86 21.86 0 01-5 7.66 21.52 21.52 0 01-4.7 3.57 21.85 21.85 0 01-10.16 2.86 22.15 22.15 0 01-11.16-2.58.7.7 0 00-.47-.07c-1.78.55-3.55 1.13-5.33 1.69l-4.3 1.36c-.76.25-1.51.52-2.27.78L0 45c.07-.16.16-.31.22-.48.22-.66.43-1.32.66-2 1-3 2-5.93 3-8.9a.9.9 0 000-.56c-.27-.57-.58-1.11-.86-1.66a19.82 19.82 0 01-1.71-5.07A21.94 21.94 0 0111.75 3 21.58 21.58 0 0119.91.22zm-16 39.66l.89-.26 5.88-1.88a.82.82 0 01.7.08 27.37 27.37 0 002.9 1.49 18.5 18.5 0 0019.37-3.41 18.51 18.51 0 004.06-5.21 17.8 17.8 0 002-7.22A18 18 0 0040.07 15a18.35 18.35 0 00-5.78-7.57 18.51 18.51 0 00-20.16-1.72 18.59 18.59 0 00-9.35 12.2 18.68 18.68 0 00-.41 5.22 17.93 17.93 0 001 4.82 19 19 0 002.38 4.66.53.53 0 01.07.42c-.41 1.24-.83 2.48-1.25 3.72-.36.94-.68 1.88-1.02 2.91z"/><path class="cls-1" d="M12.11 16.8a6 6 0 012.18-4.39 2.15 2.15 0 011.07-.41 5.1 5.1 0 011.46 0 1 1 0 01.64.45c.37.71.67 1.45 1 2.19s.56 1.43.89 2.12a1.43 1.43 0 01-.19 1.55c-.36.49-.76 1-1.15 1.42a.81.81 0 00-.14 1.08 15.46 15.46 0 003.95 4.46 16.33 16.33 0 003.31 1.86c.68.3.94.25 1.4-.31s1-1.22 1.49-1.85c.38-.47.68-.6 1.21-.35 1.49.69 3 1.4 4.44 2.1a.71.71 0 01.43.68 5.77 5.77 0 01-.43 2.25 3.86 3.86 0 01-1.5 1.6 5.72 5.72 0 01-3.09 1 7.13 7.13 0 01-2.28-.38c-1.29-.41-2.55-.89-3.81-1.39a14.34 14.34 0 01-3.61-2.24 27.19 27.19 0 01-5.29-6 10.85 10.85 0 01-1.81-4c-.11-.41-.12-.93-.17-1.44z"/></g></g></svg>