<svg xmlns="http://www.w3.org/2000/svg" viewBox="0 0 1988.23 2624.22"><defs><clipPath id="a" transform="translate(344.4 908.66)"><path fill="none" d="M0 0h1361.11v797.93H0z"/></clipPath></defs><g data-name="Layer 2"><g clip-path="url(#a)" data-name="Inicio 2"><path d="M0 429.38c0-39.36 27.79-87.58 61.82-107.23l531.5-307.44c34-19.62 89.63-19.62 123.62 0l531.46 307.44c34 19.65 61.83 67.87 61.83 107.23v614.64c0 39.3-27.83 87.55-61.83 107.2l-531.46 307.44c-34 19.65-89.59 19.65-123.62 0l-531.5-307.41c-34-19.65-61.82-67.9-61.82-107.2zm678 1150.85c0-39.36 27.79-87.58 61.82-107.23l531.5-307.44c34-19.62 89.63-19.62 123.62 0L1926.4 1473c34 19.65 61.83 67.87 61.83 107.23v614.64c0 39.3-27.83 87.55-61.83 107.2l-531.46 307.41c-34 19.65-89.59 19.65-123.62 0l-531.5-307.41c-34-19.65-61.82-67.9-61.82-107.2z" fill="#dfdfdf"/></g></g></svg>