<svg xmlns="http://www.w3.org/2000/svg" viewBox="0 0 55.63 55.63"><defs><style>.cls-1{fill:gray}</style></defs><g id="Layer_2" data-name="Layer 2"><g id="Inicio_2" data-name="Inicio 2"><path class="cls-1" d="M907 929a5.87 5.87 0 11-5.86 5.86A5.86 5.86 0 01907 929z" transform="translate(-879.17 -907.07)"/><path class="cls-1" d="M907 907.07a.85.85 0 00-.85.85V934H880a.86.86 0 100 1.71h26.1v26.1a.86.86 0 101.71 0v-26.1h26.1a.86.86 0 100-1.71h-26.1v-26.08a.85.85 0 00-.81-.85z" transform="translate(-879.17 -907.07)"/><path class="cls-1" d="M909.38 908.92v2.33a23.74 23.74 0 0121.19 21.19c.77 0 1.55-.08 2.32-.07a26.11 26.11 0 00-23.51-23.45zm-4.87 0A26.09 26.09 0 00881 932.48l2.33-.05a23.75 23.75 0 0121.16-21.18zm0 6.41a19.73 19.73 0 00-17.07 17h2.34a17.35 17.35 0 0114.73-14.71zm5 0v2.34a17.35 17.35 0 0114.71 14.73h2.34a19.73 19.73 0 00-17.08-17.06zm-5 7a12.78 12.78 0 00-10 10h2.37a10.4 10.4 0 017.66-7.66zm5 0v2.37a10.41 10.41 0 017.66 7.66h2.37a12.78 12.78 0 00-10.07-9.98zM933 937.29h-2.33a23.74 23.74 0 01-21.19 21.19c0 .77.08 1.55.07 2.32A26.11 26.11 0 00933 937.29zm-49.6 0c-.77 0-1.55.08-2.32.07a26.11 26.11 0 0023.55 23.45v-2.33a23.74 23.74 0 01-21.28-21.15zm33.77 0a10.41 10.41 0 01-7.66 7.66v2.37a12.78 12.78 0 0010-10zm-29.68 0a19.74 19.74 0 0017 17.07v-2.34a17.36 17.36 0 01-14.71-14.73zm7 0a12.8 12.8 0 0010 10v-2.37a10.41 10.41 0 01-7.66-7.66zm32 0h-2.34A17.35 17.35 0 01909.42 952v2.34a19.73 19.73 0 0017.11-16.96z" transform="translate(-879.17 -907.07)"/></g></g></svg>