<svg xmlns="http://www.w3.org/2000/svg" viewBox="0 0 55.63 44.93"><g data-name="Layer 2"><g data-name="Inicio 2"><path class="cls-1" d="M4.97 0a5 5 0 00-5 5v19.59a5 5 0 005 5h26.75a5 5 0 005-5v-3.8a18.75 18.75 0 01-2.71-2.16v6a2.22 2.22 0 01-2.26 2.26H4.97a2.23 2.23 0 01-2.27-2.26V4.94a2.24 2.24 0 012.27-2.27h26.75a2.23 2.23 0 012.26 2.27v6.59a11.69 11.69 0 012.71 2V4.94a5 5 0 00-5-5z"/><path class="cls-1" d="M17.68 27.5a1.4 1.4 0 00-.94.39l-8.79 8.45a1.366 1.366 0 001.86 2l8.79-8.44a1.36 1.36 0 00.07-1.92 1.39 1.39 0 00-1-.43z"/><path class="cls-1" d="M18.97 27.5a1.36 1.36 0 00-.9 2.35l8.79 8.44a1.354 1.354 0 001.89-1.94l-8.79-8.45a1.43 1.43 0 00-.99-.4z"/><path class="cls-1" d="M18.32 27.5a1.33 1.33 0 00-1 .41 1.35 1.35 0 00-.38 1v7.14a1.35 1.35 0 001.35 1.37 1.41 1.41 0 001-.4 1.35 1.35 0 00.38-1v-7.14a1.33 1.33 0 00-1.37-1.37z"/><rect class="cls-1" x="6.34" y="13.36" width="6" height="10.3" rx=".68"/><rect class="cls-1" x="24.35" y="16.71" width="6" height="6.96" rx=".68"/><rect class="cls-1" x="15.34" y="5.87" width="6" height="17.8" rx=".68"/><path class="cls-1" d="M48.73 4.2a3.41 3.41 0 103.4 3.41 3.41 3.41 0 00-3.4-3.41zm1.09 7.2c-1.78 0-3.65 0-5.45.08a2.14 2.14 0 00-1.32.62l-4.88 4.32-4-3.42a1.62 1.62 0 10-2.07 2.42l4.92 4.21a2.47 2.47 0 001.41.52 2.44 2.44 0 001.69-.65l4.05-3.58v26.72a6.36 6.36 0 016.8 2.29 2.28 2.28 0 002.29-2.29V27.45c3-.77 2.3-6 2.32-8.86 0-4.16-.19-7-2.69-7.13-.97-.05-2-.07-3.07-.06z"/></g></g></svg>