<svg xmlns="http://www.w3.org/2000/svg" viewBox="0 0 30.49 51.29"><g data-name="Layer 2"><g data-name="Inicio 2"><path d="M3.97.04a3.94 3.94 0 00-4 3.89v43.5a4 4 0 004 3.9h22.64a3.86 3.86 0 003.88-3.9V3.93A3.86 3.86 0 0026.61.04zm8.13 2h6.45a.8.8 0 010 1.6h-6.43a.77.77 0 01-.82-.8.79.79 0 01.79-.8zM1.63 5.64h27.33v37.7H1.63zm13.66 39.3a2.41 2.41 0 11-2.41 2.41 2.41 2.41 0 012.41-2.45z"/><rect x="14.25" y="33.74" width="12.31" height="1.65" rx=".82"/><rect x="14.25" y="23.45" width="12.31" height="1.65" rx=".82"/><rect x="14.25" y="13.16" width="12.31" height="1.65" rx=".82"/><path d="M5.57 10.04a1.66 1.66 0 00-1.64 1.64v4.52a1.66 1.66 0 001.64 1.64h4.51a1.66 1.66 0 001.64-1.64v-4.52a1.66 1.66 0 00-1.64-1.64zm.65 1.49h3.22a.8.8 0 01.8.8v3.22a.8.8 0 01-.8.81H6.22a.81.81 0 01-.81-.81v-3.22a.8.8 0 01.81-.76zm-.65 8.84a1.66 1.66 0 00-1.64 1.64v4.52a1.66 1.66 0 001.64 1.64h4.51a1.66 1.66 0 001.64-1.64v-4.49a1.66 1.66 0 00-1.64-1.64zm.65 1.49h3.22a.8.8 0 01.8.8v3.22a.8.8 0 01-.8.81H6.22a.81.81 0 01-.81-.81v-3.22a.8.8 0 01.81-.8zm-.65 8.8a1.66 1.66 0 00-1.64 1.64v4.52a1.66 1.66 0 001.64 1.64h4.51a1.66 1.66 0 001.64-1.64V32.3a1.66 1.66 0 00-1.64-1.64zm.65 1.49h3.22a.8.8 0 01.8.8v3.22a.8.8 0 01-.8.81H6.22a.81.81 0 01-.81-.81v-3.22a.8.8 0 01.81-.8z"/></g></g></svg>