<svg xmlns="http://www.w3.org/2000/svg" viewBox="0 0 55.63 52.81"><g data-name="Layer 2"><g data-name="Inicio 2"><path class="cls-1" d="M10.46 31.29c-2 5.62-4.14 11.74-5.93 16.83 8.7.16 17.11 0 25.2 0-2-6-3.86-11.4-5.89-16.88zm5.89 1.83a2.43 2.43 0 11-2.43 2.43 2.42 2.42 0 012.43-2.43zm-3.82 7.29a2.78 2.78 0 11-2.78 2.77 2.77 2.77 0 012.78-2.77zm10.12.35a2 2 0 11-2 2 2 2 0 012-2z"/><path class="cls-1" d="M9.41 7.45v10.27a25.37 25.37 0 01-1.2 6.91L.32 46.96a4 4 0 004 5.63H30.1a4 4 0 004-5.63l-7.9-22.33a25.37 25.37 0 01-1.2-6.91V7.45h-3v10.27a28.46 28.46 0 001.33 7.93l7.87 22.33a1.24 1.24 0 010 1.14 1.25 1.25 0 01-1.07.4H4.26a1.25 1.25 0 01-1.07-.4 1.24 1.24 0 010-1.14l7.86-22.34a28.4 28.4 0 001.34-7.92V7.45z"/><rect class="cls-1" x="6.61" width="21.1" height="6.14" rx="1.53"/><path class="cls-1" d="M37.41 7.45v38.13a7.71 7.71 0 0014.91 2.22c.83-2.13.39-4.48.5-6.72V7.45h-3.19v38a4.52 4.52 0 01-9-.36V7.47z"/><path class="cls-1" d="M41.77 18.62v26.42a3.31 3.31 0 006.61 0V18.62z"/><rect class="cls-1" x="34.53" width="21.1" height="6.14" rx="1.53"/></g></g></svg>