<svg xmlns="http://www.w3.org/2000/svg" viewBox="0 0 55.63 50.53"><g data-name="Layer 2"><path class="cls-1" d="M2.83 21.41v27.12a2 2 0 002 2h46a2 2 0 002-2V21.41zm16.69 10.06h.06a.74.74 0 01.74.76.64.64 0 010 .24l-2.51 7.37a.93.93 0 01-.19.37.92.92 0 01-.66.31.87.87 0 01-.65-.31 1.21 1.21 0 01-.2-.36l-1.79-5.23-1.8 5.23a1 1 0 01-.2.36.84.84 0 01-1.3 0 1.13 1.13 0 01-.2-.37l-2.47-7.32a.754.754 0 011.43-.48l1.89 5.62 1.93-5.62a.77.77 0 011-.48.75.75 0 01.47.48L17 37.66l1.89-5.62a.74.74 0 01.63-.57zm3 0a.75.75 0 01.75.52l1.89 5.62 1.93-5.62a.76.76 0 011-.47.78.78 0 01.47.47l1.92 5.62 1.9-5.62a.74.74 0 01.72-.52.75.75 0 01.75.75.69.69 0 010 .25l-2.54 7.37a1.13 1.13 0 01-.2.37.84.84 0 01-1.3 0 1.21 1.21 0 01-.2-.36l-1.79-5.23-1.81 5.22a1.1 1.1 0 01-.2.36.87.87 0 01-1.5-.37l-2.47-7.32a.75.75 0 01.46-1 .57.57 0 01.22 0zm24 0h.06a.74.74 0 01.74.76.64.64 0 010 .24l-2.51 7.37a1.13 1.13 0 01-.2.37.9.9 0 01-.66.31.87.87 0 01-.65-.31 1 1 0 01-.19-.36l-1.8-5.23-1.8 5.22a1.15 1.15 0 01-.19.36.92.92 0 01-.66.31.87.87 0 01-.65-.31 1.13 1.13 0 01-.2-.37l-2.47-7.32a.76.76 0 011.44-.48l1.89 5.62 1.92-5.62a.77.77 0 011-.48.75.75 0 01.47.48l1.93 5.62 1.89-5.62a.75.75 0 01.63-.56zM8.27 0C6.61 0 5.01.85 4.66 1.94L.11 16.12c-.51 1.6.75 2.94 2.85 2.94s4.11-1.34 4.49-2.94L10.8 1.94C11.05.85 9.92 0 8.27 0zm7.79 0c-1.65 0-3.16.85-3.39 1.94l-3 14.18c-.33 1.6 1.08 2.94 3.18 2.94s4-1.34 4.16-2.94l1.78-14.18C18.94.84 17.72 0 16.06 0zm7.79 0c-1.65 0-3.07.85-3.18 1.94l-1.42 14.18c-.16 1.6 1.4 2.94 3.5 2.94s3.81-1.34 3.83-2.94l.23-14.18C26.82.84 25.51 0 23.85 0zm7.82 0c-1.66 0-3 .85-3 1.94l.15 14.18c0 1.6 1.72 2.94 3.82 2.94s3.66-1.34 3.51-2.94L34.81 1.94C34.7.85 33.29 0 31.64 0zm7.95 0c-1.65 0-2.88.85-2.75 1.94l1.75 14.18c.19 1.6 2 2.94 4.15 2.94s3.51-1.34 3.18-2.94L43.01 1.94C42.79.85 41.28 0 39.62 0zm7.79 0c-1.65 0-2.78.85-2.53 1.94l3.31 14.18c.37 1.6 2.37 2.94 4.47 2.94s3.37-1.34 2.86-2.94L51.01 1.94C50.67.85 49.07 0 47.41 0z" data-name="Inicio 2"/></g></svg>