<svg xmlns="http://www.w3.org/2000/svg" viewBox="0 0 55.63 48.58"><g data-name="Layer 2"><g data-name="Inicio 2"><path class="cls-1" d="M43.77 8.48a3.57 3.57 0 103.57-3.56 3.57 3.57 0 00-3.57 3.56zm7.53 4.31H30.41a1.5 1.5 0 100 3h12.48v30.83a2 2 0 004 0V29.87h.89v16.75a2 2 0 004 0V17.74h.87v11.35a1.5 1.5 0 103 0V17.65c0-2.37-1.56-4.86-4.33-4.86z"/><path class="cls-1" d="M6.53 0C4.65 0 2.96 0 1.46 1.45S.01 5.03.01 7v25.65a5 5 0 002.75 4.47 9.35 9.35 0 004.3.52h14.66l-8.37 8.37a1.354 1.354 0 001.91 1.92l8-8v7a1.36 1.36 0 002.71 0v-7l8 8a1.354 1.354 0 001.91-1.92l-8.37-8.37h13.94v-2.71H5.15a2.26 2.26 0 01-2.32-2.24V7.45c0-1.41-.36-3.42 1-4.35.92-.65 2.52-.4 3.57-.4h32.51a18.18 18.18 0 013.13 0 2 2 0 011.51 1.1 5.46 5.46 0 012.53-.83 4.8 4.8 0 00-4.51-3z"/><path class="cls-1" d="M17.89 12.65a.36.36 0 00-.26.11l-9.05 9a.39.39 0 00-.11.27v6.67a1.14 1.14 0 001.14 1.13h5.7a.38.38 0 00.38-.38v-5.94a.37.37 0 01.38-.38h3.65a.37.37 0 01.38.38v5.94a.38.38 0 00.37.38h5.71a1.14 1.14 0 001.13-1.13v-6.67a.39.39 0 00-.11-.27l-9-9a.39.39 0 00-.31-.11z"/><path class="cls-1" d="M5.33 19.17a1.62 1.62 0 000 2.3 1.64 1.64 0 002.3 0l10.26-10.22 10.23 10.22a1.63 1.63 0 102.3-2.3L18.51 7.26a.87.87 0 00-1.23 0z"/></g></g></svg>