<svg xmlns="http://www.w3.org/2000/svg" viewBox="0 0 55.63 54.97"><g data-name="Layer 2"><path class="cls-1" d="M2.54 17.92a.07.07 0 000 .06.1.1 0 000 .07l.33.54.66.65a5.83 5.83 0 00-.57.74l-.8-.46-.61-.19a.11.11 0 00-.12 0l-.15.26-.15.26v.05a.11.11 0 000 .08l.46.43.8.46a6 6 0 00-.36.86l-.89-.24H.51a.1.1 0 00-.11.07l-.08.29-.08.29a.11.11 0 00.06.1l.56.3.89.23a7.4 7.4 0 00-.12.93h-1l-.61.15a.11.11 0 00-.09.1v.6a.11.11 0 00.09.1l.61.14h1a7 7 0 00.12.92l-.89.24-.56.3a.11.11 0 00-.06.1l.08.29c0 .09.08.28.08.28a.11.11 0 00.11.08h.63l.89-.24a7.12 7.12 0 00.36.86l-.8.46-.46.43a.11.11 0 000 .1l.15.26.15.26a.11.11 0 00.12 0l.61-.18.8-.46a6.63 6.63 0 00.57.74l-.66.65-.33.54a.08.08 0 000 .07.09.09 0 000 .06l.21.21.21.21a.09.09 0 00.13 0l.54-.33.65-.66a6.63 6.63 0 00.74.57l-.46.8-.18.6a.11.11 0 000 .09l.26.15.26.15a.1.1 0 00.13 0l.43-.45.46-.8a8.19 8.19 0 00.86.36l-.24.89v.63a.11.11 0 00.07.11l.29.08.29.08a.11.11 0 00.12-.06l.3-.56.24-.89a7 7 0 00.92.12v1l.15.61a.11.11 0 00.1.09h.6a.11.11 0 00.1-.09l.14-.61v-.92a7 7 0 00.92-.12l.24.89.3.56a.11.11 0 00.12.06l.29-.08.29-.08a.11.11 0 00.07-.11v-.63l-.24-.89c.3-.11.58-.23.86-.36l.46.8.43.45a.1.1 0 00.13 0l.26-.15.26-.15a.11.11 0 000-.13l-.18-.6-.46-.8a5.83 5.83 0 00.74-.57l.65.66.54.33a.09.09 0 00.13 0l.21-.21.21-.21a.09.09 0 000-.13l-.33-.54-.66-.65a6.63 6.63 0 00.57-.74l.8.46.61.18a.1.1 0 00.12 0l.15-.26.15-.26a.1.1 0 000-.13l-.45-.43-.8-.46a6.5 6.5 0 00.36-.86l.89.24h.63a.11.11 0 00.11-.08s.06-.19.08-.28l.08-.29a.11.11 0 00-.06-.12l-.56-.3-.89-.24a7 7 0 00.12-.92h.95l.61-.14a.11.11 0 00.09-.1v-.53a.11.11 0 00-.09-.1l-.61-.15h-.95a7 7 0 00-.12-.92l.89-.24.56-.3a.11.11 0 00.06-.12l-.08-.29-.08-.29a.11.11 0 00-.11-.07h-.63l-.89.24a6 6 0 00-.36-.86l.8-.46.62-.44a.1.1 0 000-.13l-.15-.26-.15-.26a.11.11 0 00-.13 0l-.6.18-.8.46a5.83 5.83 0 00-.57-.74l.66-.65.33-.54a.09.09 0 000-.13l-.21-.22-.21-.21a.12.12 0 00-.13 0l-.54.34-.65.65a8.52 8.52 0 00-.74-.57l.46-.79.18-.61a.11.11 0 000-.13l-.26-.15-.26-.14a.11.11 0 00-.13 0l-.43.46-.46.8a6.5 6.5 0 00-.86-.36l.24-.89v-.63a.11.11 0 00-.08-.11l-.28-.08-.29-.08a.11.11 0 00-.12.06l-.3.56-.24.89a7 7 0 00-.92-.12v-1L9.88 15a.11.11 0 00-.1-.09h-.6a.11.11 0 00-.1.09l-.15.61v.94a9.26 9.26 0 00-.92.13l-.24-.89-.3-.55a.11.11 0 00-.12-.06l-.29.08-.29.07a.14.14 0 00-.07.12v.63l.24.89a6 6 0 00-.86.36l-.46-.8-.43-.46a.13.13 0 00-.13 0l-.26.15-.26.15a.12.12 0 000 .1l.18.61.46.79a8.52 8.52 0 00-.74.57l-.65-.65-.54-.34a.12.12 0 00-.13 0l-.21.21-.21.21zm2.27 3.06l2 2a3 3 0 000 2.8l-2 1.95a5.67 5.67 0 010-6.71zm1.21-1.21a5.64 5.64 0 016.72 0l-2 2a3 3 0 00-2.8 0zm0 9.14l2-2a3 3 0 002.8 0l2 2a5.68 5.68 0 01-6.72 0zm6-6l1.95-2a5.67 5.67 0 010 6.71l-1.95-1.95a3 3 0 00-.02-2.73zm10.57 7.48a.11.11 0 00-.08 0 .14.14 0 00-.05.08l-.19.81v1.24c-.41 0-.82.08-1.22.15l-.31-1.16-.39-.73a.17.17 0 00-.16-.08l-.38.11-.37.1a.09.09 0 00-.06 0 .12.12 0 000 .11v.83l.32 1.17a9.22 9.22 0 00-1.13.46l-.6-1-.57-.6a.15.15 0 00-.17 0l-.34.19-.34.2a.18.18 0 000 .16l.24.79.61 1a10 10 0 00-1 .75l-.86-.86-.7-.43a.15.15 0 00-.18 0l-.28.28-.27.27a.14.14 0 000 .18l.43.7.85.85a11.3 11.3 0 00-.74 1l-1-.61-.79-.23a.14.14 0 00-.15 0l-.2.34-.19.34a.13.13 0 000 .17l.6.57 1 .6a10 10 0 00-.47 1.13l-1.16-.31h-.83a.16.16 0 00-.13.06s-.06.25-.1.38l-.1.37a.15.15 0 00.08.16l.73.39 1.16.31a9.75 9.75 0 00-.15 1.21H11.7l-.8.19-.08.05a.12.12 0 000 .09v.78a.15.15 0 00.11.13l.8.19h1.25a9.75 9.75 0 00.15 1.21l-1.16.32-.73.39a.15.15 0 000 .13s.07.25.1.38.1.37.1.37a.15.15 0 00.15.1h.83l1.16-.31c.14.38.29.76.47 1.13l-1 .6-.6.57a.13.13 0 000 .17l.19.34.2.34a.13.13 0 00.16.06l.79-.24 1-.61a9.93 9.93 0 00.74 1l-.85.86-.44.7a.15.15 0 000 .18l.27.28.28.27a.14.14 0 00.18 0l.7-.43.86-.85a8.57 8.57 0 001 .74l-.61 1-.24.8a.14.14 0 00.06.16l.34.2.34.19a.13.13 0 00.17 0l.57-.6.6-1.05a10 10 0 001.13.47l-.32 1.16v.83a.15.15 0 00.1.15l.37.1.38.1a.14.14 0 00.16-.08l.39-.73.32-1.17a12.13 12.13 0 001.21.16v1.35l.19.81a.14.14 0 00.13.11h.79c.06 0 .11-.06.13-.12l-.07-.8v-1.2a12.13 12.13 0 001.21-.16l.31 1.17.39.73a.15.15 0 00.16.08l.37-.1.38-.1a.16.16 0 00.1-.15v-.83l-.31-1.16a10 10 0 001.13-.47l.6 1.05.57.6a.14.14 0 00.17 0l.34-.2.34-.2a.14.14 0 00.05-.16l-.23-.8-.6-1a9.57 9.57 0 001-.74l.85.85.7.43a.14.14 0 00.18 0l.27-.27.28-.28a.14.14 0 000-.18l-.43-.7-.86-.86a8.67 8.67 0 00.75-1l1 .61.79.24a.14.14 0 00.17-.06l.2-.34.19-.34a.15.15 0 000-.17l-.6-.57-1-.6A9.22 9.22 0 0032.6 46l1.17.31h.82a.13.13 0 00.15-.1l.1-.37c0-.13.1-.38.1-.38a.15.15 0 00-.07-.16l-.73-.39-1.17-.31a8.49 8.49 0 00.16-1.22h1.24l.81-.19a.15.15 0 00.11-.13v-.78a.15.15 0 00-.11-.14l-.81-.19h-1.24a8.18 8.18 0 00-.16-1.21l1.17-.31.73-.39a.13.13 0 00.07-.16s-.06-.25-.1-.37-.1-.38-.1-.38a.13.13 0 00-.14-.1h-.83l-1.17.31a9.92 9.92 0 00-.46-1.13l1-.6.6-.56a.17.17 0 000-.18s-.13-.22-.19-.34l-.2-.34a.15.15 0 00-.17 0l-.79.23-1 .6a11.43 11.43 0 00-.75-1l.86-.85.43-.7a.14.14 0 000-.18l-.26-.28-.27-.28a.15.15 0 00-.18 0l-.7.43-.85.85a11.43 11.43 0 00-1-.75l.61-1 .23-.79a.15.15 0 00-.05-.17l-.34-.2-.34-.19a.15.15 0 00-.17 0l-.57.6-.6 1a9.92 9.92 0 00-1.13-.46l.31-1.17v-.83a.14.14 0 00-.1-.14l-.38-.1-.37-.1a.11.11 0 00-.13 0l-.39.73-.31 1.17a9.77 9.77 0 00-1.21-.16v-1.14l-.19-.81a.15.15 0 00-.13-.11h-.79zm.39 3.69a8.59 8.59 0 015.46 2l-3.84 3.84a3.22 3.22 0 00-3.23 0l-3.84-3.91a8.58 8.58 0 015.45-1.93zm-6.63 3.14l3.84 3.84a3.22 3.22 0 000 3.23l-3.84 3.84a8.58 8.58 0 010-10.91zm13.27 0a8.59 8.59 0 010 10.92l-3.84-3.85a3.22 3.22 0 000-3.23l3.84-3.84zm-7.89 4.21h2.5v2.5h-2.5zm-.36 4a3.22 3.22 0 003.23 0l3.84 3.84a8.58 8.58 0 01-10.91 0zM19.67.01c-1 0-1.26.07-1.26.64v.85a.37.37 0 01-.29.34 6 6 0 00-.71.26 5.79 5.79 0 00-.67.31.39.39 0 01-.44 0l-.6-.61c-.43-.43-.65-.25-1.5.6s-1 1.07-.59 1.5l.6.6a.36.36 0 010 .44 5.79 5.79 0 00-.31.67 5.89 5.89 0 00-.26.7.36.36 0 01-.33.29h-.85c-.61 0-.65.28-.65 1.49s0 1.48.65 1.48h.85a.36.36 0 01.33.28c.07.24.16.47.25.7s.2.46.32.68a.36.36 0 010 .44l-.6.6c-.43.43-.26.65.59 1.5s1.07 1 1.5.6l.6-.61a.38.38 0 01.44 0c.22.12.45.22.68.32s.46.18.7.25a.37.37 0 01.29.34v.85c0 .61.28.64 1.48.64s1.48 0 1.48-.64v-.85a.37.37 0 01.29-.34c.23-.07.46-.16.69-.25s.46-.2.68-.32a.36.36 0 01.44 0l.6.61c.43.43.66.25 1.51-.6s1-1.07.59-1.5l-.6-.6a.38.38 0 010-.44 6 6 0 00.32-.68 5.83 5.83 0 00.25-.7.36.36 0 01.34-.28h.85c.61 0 .64-.28.64-1.48s0-1.49-.64-1.49h-.85a.36.36 0 01-.34-.29c-.07-.24-.16-.47-.25-.7s-.2-.45-.32-.67a.38.38 0 010-.44l.6-.6c.43-.43.26-.65-.59-1.5s-1.08-1-1.51-.6l-.6.61a.39.39 0 01-.44 0 5.11 5.11 0 00-.67-.31 5.89 5.89 0 00-.7-.26.37.37 0 01-.29-.34V.65c0-.61-.28-.64-1.48-.64zm.22 3.59a4.46 4.46 0 11-4.46 4.45 4.45 4.45 0 014.49-4.46zm26.42 2.41a4 4 0 104 4 4 4 0 00-4-4zm-7.58 8.82h-11.4a1.67 1.67 0 100 3.32h13.49a.49.49 0 01.5.48v34.11a2.24 2.24 0 104.47 0v-18.4a.5.5 0 01.5-.49.49.49 0 01.5.49v18.4a2.25 2.25 0 004.49 0V20.63a.5.5 0 011 0v12.45a1.67 1.67 0 103.33 0V20.27c0-2.65-1.76-5.45-4.86-5.45z" data-name="Inicio 2"/></g></svg>