<svg xmlns="http://www.w3.org/2000/svg" viewBox="0 0 53.45 53.34"><g data-name="Layer 2"><g data-name="Inicio 2"><path class="cls-1" d="M16.83 12.64a2.94 2.94 0 00-1.5.38 2.89 2.89 0 101.5-.38zm20.75 1.14a3 3 0 00-1.36.39 2.86 2.86 0 101.36-.39zm-26 10.14a2.83 2.83 0 00-1.5.39 2.87 2.87 0 101.5-.39zm28.94 5.15a2.82 2.82 0 00-1.36.38 2.89 2.89 0 101.36-.38zM20.2 37.29a2.84 2.84 0 00-1.36.39 2.87 2.87 0 101.36-.39z"/><path class="cls-1" d="M16.87 15.05a.58.58 0 00-.56.6.6.6 0 00.24.45l5.71 4.24a5 5 0 01.71-.93l-5.72-4.24a.53.53 0 00-.38-.12zm20.62 1.06a.62.62 0 00-.32.09l-5.93 3.56a6 6 0 01.6 1l5.94-3.57a.59.59 0 00.21-.8.63.63 0 00-.5-.28zm-16 7.68l-10 2.49a.584.584 0 10.25 1.14l10-2.49a4.64 4.64 0 01-.26-1.1zm10.32 1.76a4.81 4.81 0 01-.63 1l8.73 5.67a.594.594 0 10.64-1zm-7.43 2.4L19.87 39.7a.59.59 0 001.1.41l4.49-11.72a4.62 4.62 0 01-1.06-.44z"/><path class="cls-1" d="M24.02 18.11a5.8 5.8 0 115.83 10 5.8 5.8 0 01-5.83-10zM1.58 35.78a26.73 26.73 0 0029.76 17.18l-.93-5.26a21.38 21.38 0 01-23.8-13.74zM.41 31.27l5.27-.93a21.38 21.38 0 0119.19-25L24.4.02a26.31 26.31 0 00-4.59.81A26.71 26.71 0 00.41 31.27zm33.62 15.44l1.82 5A26.73 26.73 0 0047.19 9.42l-4.09 3.44a21.38 21.38 0 01-9.07 33.83zM28.58 5.33a21.37 21.37 0 0111.88 4.92l3.44-4.09A26.77 26.77 0 0029.05 0z"/></g></g></svg>